<?xml version="1.0" encoding="UTF-8"?>
<svg id="Layer_2" data-name="Layer 2" xmlns="http://www.w3.org/2000/svg" viewBox="0 0 1708.92 2102.86">
  <defs>
    <style>
      .cls-1 {
        fill: #000;
        stroke-width: 0px;
      }
    </style>
  </defs>
  <g id="Background">
    <g>
      <path class="cls-1" d="M562.91,1762.11l-.25-2.59-2.35-.04s-.03-.03-.04-.04l-.86-.88-1.23-.02s-.04,0-.06,0c-.92,0-1.78.35-2.42.98-.61.61-.97,1.43-1.01,2.3-.09,1.37.5,3.66,2.16,4.87l.76.55h.61s.45.47.45.47l1.65.03.07-2.77,2.97.24c.18-1.11-.14-2.1-.35-2.76-.04-.12-.08-.23-.1-.33Z"/>
      <path class="cls-1" d="M557.15,1755.53c.35.15.95.41,1.72.42l1.28.02,3.12-3.13-.06-5.15h-.4s.01-.84.01-.84l-2.92-.05c-.09-.02-.17-.05-.25-.08-.45-.16-1.13-.4-2.07-.41l-3.08-.05.02,1.88c-.15.12-.3.25-.44.39l-.89.89.07,5.08h.89s0,.91,0,.91l2.85.05c.05.02.1.04.14.06Z"/>
      <path class="cls-1" d="M607.4,49.06s.09-.02.13-.02c2.1,1.14,4.4.77,6.26.46,1.17-.19,2.49-.4,2.95-.07l2.53,1.86,2.03-3.06c.14-.21.26-.39.36-.55l1.27-.03.86-.89c.42-.44.74-.93,1.03-1.36.12-.18.23-.37.32-.48l.83-.86.02-1.19c0-.79-.23-1.42-.42-1.82v-.77s-.86-.89-.86-.89c-.43-.44-.92-.77-1.35-1.06-.16-.11-.32-.2-.4-.27l-2.16-2.2-2.14,2.21c-.3.31-.64.58-1.03.88-.31.24-.64.5-.98.8-.49.13-.98.26-1.47.4-2.14.59-4.01,1.11-5.93.96-2.34-.98-4.4.22-5.43.83-.23.13-.45.27-.69.38l-1.69.8-.02,1.41c-.19.4-.46,1.03-.47,1.83l-.04,2.8,2.79.23c1.33.11,2.59-.13,3.7-.34Z"/>
      <path class="cls-1" d="M516.05,1665.05v-.45s-.86-.86-.86-.86c-.71-.72-1.55-1.01-2.04-1.19,0,0-.02,0-.02,0l-1.86-1.88-2.58,2.57c-.12.12-.45.45-.61.54,0,0,.22-.1.55-.1l-1.45,5.66c.58.31,1.01.83,1.71,1.72.35.44.7.88,1.09,1.32l2.11,2.33,1.77-1.77,2.71.05-.09-7.46-.46-.46Z"/>
      <path class="cls-1" d="M624.53,2093.75h0l-1.33-.29-.87.88c-.51.17-1.34.45-2.05,1.17-.79.8-1.31,1.89-1.86,3.04l-1.79,3.75,4.12.52c2.46.31,3.9-1.55,4.49-2.37.52-.17,1.29-.46,1.96-1.15l1.12-1.14-.33-1.57c-.37-1.76-1.7-2.86-3.46-2.86Z"/>
      <path class="cls-1" d="M590.12,1761.45c.58.47.99,1.17,1.04,1.9l-2.55.03v-.43s-.1.1-.1.1l.04-2.66-1.9-.03-.03-2.72-1.24-.02-1.75-.48h-.5s.14-.77.14-.77l-1.1-1.11c-.56-.57-1.11-.85-1.43-1.02l-.78-.78h-.66c-.17-.3-.4-.63-.74-.97l-.06-.06-.03-3.06-2.1-.04c-.52-.31-1.1-.47-1.72-.48l-3.05-.05v.45l-.92-.02.03,3.08c.02,2.05.7,3.07,1.53,3.53l-1.47,3.01,3.71.06c.17.28.4.62.74.96l.86.87h.9s.03.04.04.06l2.13,2.16.7-.7c.17.24.34.42.44.52l1,1.02-2.01,1.98c-.28.07-.55.18-.8.32l-1.78-.03-.4,2.59c-.24,1.58.47,2.56.91,3.01.97.97,2.13,1,2.86.93l.7.27v1.02s-.43.22-.43.22l.02,2.04c.01-.35.16-.77.43-1.15l.02,1.67,1.97.03-.22,3.15c1.88.23,3.33-.57,4.29-1.1.28-.16.55-.3.74-.38l1.92-.75-.06-5.45h-.44s-.03-2.27-.03-2.27l-1.71-.03c-.42-.22-.94-.39-1.59-.46-.4-.2-1.05-.49-1.88-.5h-.22s-.05-4.41-.05-4.41l1.53.02.36.37c.49,1.21,1.6,1.92,3.12,1.95l2.03.03.78-1.88c.77-1.84-.44-3.07-1.08-3.72l-.18.18Z"/>
      <path class="cls-1" d="M691,1654.02l4.39,2.24-.04-7.06-1.83-1.85c0-.15,0-.31.01-.46l.03-1.26-.85-.91c.22.24.37.68.37,1.13l-6,.04c0-.08.03-.19.05-.24-.05.12-.12.22-.19.35-.14.24-.29.5-.43.81l-.31.64.02,4.35,1.63.83c.56.29,1.19.55,1.8.8.5.2,1.01.42,1.35.59Z"/>
      <path class="cls-1" d="M1.18,1234.69c-1.27,5.23-1.51,9.98-.74,14.51l.42,2.47h.83c0,.06.02.12.03.17.77,4.8,1.63,10.22,4.46,14.83.14.69.27,1.39.41,2.09,1.33,6.92,2.98,15.53,9.96,20.52l.58.42.71.11c1.58.24,3.05.49,4.51.73,1.48.24,2.97.49,4.57.74l.54.08.53-.11c5.72-1.19,10.05-1.35,13.22-.49,2.57,2.32,5.79,2.75,8.54,2.99l2.5,3.65.91.33c8.81,3.19,15.53,10.86,22.02,18.27l2.12,2.42,1.01.19c4.17.78,6.62,2.9,9.87,6.04l.4.32c3.22,2.18,6.63,3.89,9.94,5.54,3.42,1.71,6.65,3.32,9.63,5.41l.5.35.59.13c8.48,1.81,17.96,1.55,28.95-.8,2.5.16,4.84,1.36,7.31,2.63.84.43,1.69.86,2.54,1.26l1.28.6,3.35-1.6c4.18.15,8.1,2.19,12.23,4.36,4.85,2.54,9.86,5.18,15.83,4.99l2.95-.09-.02-1.66.9-.88v-.33c1.12-.08,2.17-.07,3.26-.05l1.17.02.87-.77c1.18-1.05,1.42-1.02,1.69-.99l1.01.13.17-.1.05.42,1.56.7c1.46.66,2.84.83,4.12.52-.01,1.9.6,3.45,1.27,4.85l.81,1.67,1.6.02c0,2.2.73,4.35,2.14,6.33l-2.64,2.59,4.9.08.22.25h-.19s-.68.88-.68.88h-.43s0,.38,0,.38c0,0,0,0-.01,0-.29.17-.69.4-1.1.73l-1.12.9.05,5.73,7.81.12-.02-1.78h.91s-.05-4.55-.05-4.55c.24.15.47.28.69.41.12.07.24.14.37.21.29.35.66.68,1.13.97l1.44,1.42,1.91-.91c.26-.12.43-.18.73-.27.39-.12.88-.28,1.53-.59l.7-.34c.53,1.08,1.05,1.95,1.4,2.48l.64.98,1.13.29c1.28.33,2.63.61,4.12.42,1.18.78,2.43,1.24,3.5,1.64,1.48.55,2.41.93,2.81,1.62l1.72,3.04,1.09-.86v.88s3.12-.15,3.12-.15c2.03-.1,4.04.09,6.36.6l.45.45c.8.8,1.61,1.3,2.2,1.66.69.43.78.5.85.66l.79,1.71,2.42.04c.06.04.12.08.19.12l.79.79,4.06.06c.75.7,1.54,1.3,2.45,1.85l.66.41.77.04c.12,0,.42.08.64.14.9.22,2.45.61,4.04-.14l.08.08,1.21.02s.03,0,.05,0c.74,0,1.53-.24,2.25-.59.12.04.24.07.37.1.15.09.3.18.45.25.66.45,1.43.7,2.24.74.96.03,1.94-.21,2.97-.78l.23.23.53.09c-.24.52-.46,1.02-.7,1.4l-2.67,4.46,2.89.04,1.65.7c5.5,2.33,12,2.72,17.73,3.06.13,0,.27.02.4.02.09,1.02.38,1.92.68,2.7l.51,1.33,1.36.44c1.27.42,2.6.58,3.92.5l-2.17,3.25,4.31.07s.04.04.05.05l.86.86,1.08.02c.08.07.22.22.43.52l1.68,2.48,1.01-.68c-.07,1.01-.04,2.49.95,4.03l2.64,4.1,2.01-3.42c.25-.09.48-.21.69-.34.21-.04.4-.09.58-.13.22-.05.53-.12.63-.13l1.3.02-.1.57c-.07.39-1.18,1.13-1.92,1.62-.89.59-1.9,1.27-2.72,2.17l-.79.87v.04c-.91.53-1.88,1.16-2.8,2.17l-.72.79-.09,1.75c-.19,3.48-.38,7.07,1.29,10.99l.23.54.41.41c.43.43.92.76,1.35,1.05.18.12.36.23.47.32l.5.49.66.22c.38.13.77.25,1.16.35v.15c.12,2.07.28,5.2,2.75,6.72,1.53.94,3.4.93,5.58-.03l.96-.42s.07.04.1.06c.53,1.74,1.22,3.47,2.14,5.37.72,4.65,2.65,8.81,4.36,12.5.89,2.14,1.27,5.13,1.67,8.3.97,7.64,2.18,17.14,12.17,18.79l.23.04c.35,1.14.71,2.29,1.09,3.41l.22.67.39.39.02.03c.14.28.38.73.8,1.22.48.59,1.29,1.08,2.69,1.11h.83c1.37,1.96,3.14,3.48,4.14,4.34l.4.34.11,1.02,1.29.77c4.74,2.81,8.5,5.48,11.46,9.34l.63.83,1.01.26c6.36,1.61,12.94,3.28,18.55,7.1l2.04,1.39,1.3-1.29.9.02.9-.89c.12-.12.22-.25.32-.38v.5s.86.86.86.86c.72.72,1.55,1.01,2.05,1.18,0,0,.02,0,.03,0l.38.38.89.18c1.46.3,2.92.62,4.36.94,7.04,1.57,14.3,3.19,22.08,1.4.27.05.54.1.82.16,3.66.72,8.68,1.71,12.1-1.89l.43-.45c5.64,1.65,11.4,2.46,17,3.25l.61.09c1.18,3.52,3.93,5.91,8.26,7.14,2.3,3.29,5.96,6.56,11.15,9.97l.96.63,1.13-.17c.62-.09,1.18.04,2.11.29.83.22,1.84.5,3.04.51l-.04.06.07,1.02c.04.62.03,1.34,0,2.1-.05,1.88-.1,4.01.72,6.04l.13.31.19.28c6.12,8.79,15.58,16.49,26.64,21.69l2.99,1.4c.75.93,1.76,1.92,3.23,2.42l6.94,2.35-1.37-2.72s.05-.03.08-.04c1.19-.2,2.4-.61,3.46-1.37.72.11,1.42.19,2.1.26,1.08.12,2.11.24,3.09.45l.85.18.82-.3c.78-.29,1.49-.61,2.18-.92.79-.35,1.44-.64,2.03-.84-.78,1.68-1.53,3.53-1.79,5.65-.09.16-.16.31-.22.42l-.8.8.05,1.31c.02.56,0,.93-.07,1.19-.85.24-1.6.61-2.26.93l-1.7.83v1.52s0,.01.01.01h0s-2.05,2.05-2.05,2.05l1.98,2.12c2.52,2.7,5.38,5.36,10.22,5.96.66.51,1.32,1.28,2.02,2.09,1.3,1.51,2.77,3.2,4.94,4.11-1.38.06-2.77.2-4.16.53l-.49-1.92-3.26,3.25c-.76.41-1.34,1.09-1.57,1.93l-.61,2.27.63.37c-.18,1.08-.22,2.73,1.04,4.17.03.24.03.5,0,.66l-.7,1.28.66,1.3c-.97,1.09-1.76,2.3-2.23,3.46l-1.77,4.28,5.74-.17c4.77-.13,9.7-.27,14.5-1.69l-.23-1.64.53-.13c3.31-.82,6.75-.56,10.39-.29,3.47.26,7.06.53,10.73-.14,3.27.99,6.42.27,9.24-.36.8-.18,1.56-.35,2.29-.48,4.9.55,9.69.39,14.33.23l4.84-.16-.03-2.93c0-.77-.28-1.61-.67-2.35,1.19-.66,2.37-1.31,3.54-1.94,2.1-1.14,4.26-2.32,6.42-3.59,3.72-.71,7.36.39,11.21,1.56,2.45.74,4.96,1.5,7.66,1.87.53.46,1.04.98,1.58,1.53.52.52,1.05,1.06,1.63,1.58v.74s.46.46.46.46v1.8s2.02.69,2.02.69c8.18,2.83,16.6,1.52,24.74.26,5.64-.88,10.99-1.71,16.17-1.23,2.24,2.67,2.21,3.54,1.97,3.82l-.73.85v1.12c0,1.14.52,2.02,1.05,2.67.88,5.03,5.44,7.68,8.83,9.65,1.15.67,2.24,1.3,3.08,1.94l.73.55.91.05c1.55.09,3.1.45,4.74.82,2.97.68,6.34,1.45,10.08.57l.65-.15c.2.66.43,1.33.66,2.01.62,1.83,1.26,3.73,1.36,5.42l.02.23c.45,3.23,2.78,5.09,4.5,6.21l.91.59v3.28h0c0,.14,0,.28,0,.41v1.43s.54.77.54.77c.8,1.15,1.89,2.72,3.81,3.7l3.19,1.63.78-2.55c.99-.77,1.46-2.03,1.26-3.51l-.2-1.7-1.6-.66c-.15-.09-.52-.46-.76-.71-.75-.77-1.77-1.82-3.31-2.19l-1.48-.36c4.03-1.5,5.55-2.38,7.18-7.61l.37-1.2-.6-1.11c-.58-1.08-.9-2.28-1.26-3.68-.1-.38-.2-.77-.31-1.15l-.47-1.69c1.66-.98,4.05-1.45,7.07-1.96,1.26-.21,2.57-.43,3.8-.73l.48-.12.42-.27c4.15-2.64,8.26-4.35,11.91-4.94l2.53-.41v-.06l.74.49c2.37,1.57,3.73,4.05,4.95,6.72,0,.4.03.77.06,1.1-1.22.42-2.61.75-4.08,1.07l1.83-5.58-7.23,4.83c-1.59,1.07-2.66,2.14-3.6,3.09l-.88.88v1.24c0,.82.18,1.52.32,2.08.06.23.13.54.14.64v.64s.26.58.26.58c.19.43.41.84.64,1.24v2.02s1.01-.52,1.01-.52c2.52,3.23,6.43,5.12,10.65,4.99l1.19-.04.4-.4c.18,0,.39,0,.55,0h.92s.76-.51.76-.51c.52-.35,1.06-.62,1.69-.94.71-.36,1.52-.76,2.35-1.31l1.34-.9h0c1.24-.11,2.9-.51,4-2.21l.49-.74v-.89c0-.11.08-.42.13-.64.08-.31.16-.67.23-1.07.29-.46.53-.87.78-1.29.17-.28.34-.57.52-.87,7.26-2.69,13.88-6.43,20.67-11.68,1.14-.05,2.2-.13,3.23-.21,1.75-.14,3.41-.26,5.31-.2.48.08.97.19,1.46.29,2.02.44,4.53.98,7.11-.01l.6-.23,1.8-1.82.85-.91.02-1.21c0-.18.1-.68.17-1.01.06-.3.12-.61.17-.93.2-.26.38-.53.53-.79,3.46.47,5.22,1.16,6.43,1.64,4.16,1.63,5.31.64,10.84-4.12.82-.7,1.76-1.52,2.86-2.45l1.06-.9v-.62c2.91-1.67,4-4.6,4.83-6.82.54-1.46,1.02-2.74,1.82-3.56.53-.27,1.07-.74,1.55-1.5l6.96-7-8.26,1.71c.28-1.47.84-2.9,1.39-4.18l.81-1.86-1.31-1.32v-.02c-.07-.12-.15-.27-.25-.45-.06-.36-.14-.69-.22-.99-.02-.06-.03-.13-.05-.2,0,0,.01,0,.02,0,7.42,2.11,11.37-5.89,13.27-10.23,1.15-.78,2.36-1.63,3.58-2.47,1.27-.88,2.54-1.77,3.73-2.58.79-.19,1.48-.51,2.06-.79.34-.16.85-.4,1.03-.42l2.82-.17v-2.01c.3-.53.45-1.11.45-1.73v-.84c.09.08.17.16.26.23.28.25.56.5.83.75.38.67.77,1.32,1.12,1.91.18.29.35.58.51.85.09.3.2.55.29.75v.76s.3.31.3.31h-5.62l3.51,3.13-2.85,2.87h6.05c1.93,1.75,3.64,3.41,5.18,4.89,7.87,7.6,13.16,12.7,28.51,13.6.13.18.29.36.47.55l.71.72,1,.14c1.37.19,2.74.45,4.2.73,2.34.45,4.76.91,7.28,1.08l1.09.07.88-.65c1.22-.9,2.16-1.9,2.99-2.78.69-.73,1.29-1.38,1.98-1.91.39-.12.76-.26,1.09-.39.38-.15.75-.28,1.03-.36l.92-.23.62-.72c1.67-1.95,4.41-2.76,7.31-3.61,1.03-.3,2.1-.62,3.15-1l.46-.21c1.16-.65,2.25-1.36,3.3-2.04,2.85-1.85,5.32-3.45,8.39-3.53l.3-.02c4.02-.5,5.16.66,7.41,2.98,1.25,1.28,2.8,2.88,5.05,4.26l4.55,2.8v-3.55s.32.31.32.31v.57c0,.64-.01,2.15,1.32,3.49l.88.89h1.59s1.02.75,1.02.75c.71.53,1.4.94,2.02,1.31.71.43,1.32.8,1.88,1.27l4.91,4.15v-1.72c.4.55.82,1.06,1.21,1.56.67.84,1.31,1.63,1.7,2.35l.58,1.09,1.18.36c.77.23,1.82,1.79,2.59,2.92.72,1.06,1.46,2.16,2.38,3.03,1.83,2.28,3.2,5.15,4.32,8.01-.11.33-.21.74-.21,1.23l-.02,3.03h2.22c.16.32.32.65.47.97,1.69,3.49,2.35,5.3,1.12,6.77l-.7.83v.61s-.01.02-.02.03c0,0-.02.01-.03.02-.43.29-.92.62-1.35,1.06l-.74.75-.11,1.05c-.24,2.28.44,4.14,1.14,5.65l.35.75h-.96s-.13,2.85-.13,2.85c-.03.59-.02,1.19,0,1.79.02,1.06.05,1.98-.22,2.59l-.29.04-.46.46h-2.2s0,2.99,0,2.99c0,2.75.11,5.56.21,8.28.34,8.55.66,16.65-2.19,24.1-6.12,6.45-4.83,10.84-3.06,16.87l.35,1.22c-.13.26-.24.51-.34.74-.19.43-.43.96-.59,1.11l-.91.88v.45c-.28.48-.41,1.01-.44,1.57-.09.19-.25.48-.51.91l-1.66,2.78,2.9,1.44c.74.37,1.19,1.53,1.62,2.8l.48,1.41,1.42.47c.91.3,1.73.72,2.6,1.17,1.21.62,2.46,1.26,3.96,1.59l.03-.08.89.77c1.61,1.39,3.33,2.77,5,4.12,1.63,1.31,3.31,2.66,4.83,3.97l.85.74h1.13c1.42-.05,2.99.36,4.64.77l9.77,2.39.06.02h.02s.5.12.5.12l-.19-.19.63-.14c1.5-.34,2.64-1.06,3.56-1.64.17-.1.33-.21.5-.31,2.92-.63,5.64.09,8.77.92,2.18.58,4.43,1.17,6.92,1.35l.97.07-2.94,2.98s-.05.03-.08.04l-2.12.03-.05,6,2.59.38c1.66.24,2.73-.32,3.37-.65l.65-.33.35-.35c.56-.57.83-1.12,1-1.45l2.95-3.01.69,3.93c3.24-.05,6.94-.39,9.89-3.86l1.28-1.51-.89-1.77c-.84-1.68-2.51-1.66-3.05-1.65l-1.8.02-.87.88c-.31.31-1,.63-1.57.89-.21.1-.41.19-.6.28-.43.14-.82.22-1.27.32-.49.1-1.04.22-1.67.41l-2.83.03-.03-1.39,2.94.21-2.63-3.24s.09-.01.13-.01l.84-.04.7-.48c.63-.43,1.16-.75,1.68-1.07.3-.18.6-.37.91-.56,3.46.48,7.1.4,11.09-.25.87.1,1.8.3,2.77.51,2.41.51,5.29,1.13,8.23.27.05.06.09.12.14.18.3.39.62.8,1,1.17l.79.77,1.1.08c1.58.11,2.99-.1,4.23-.3.54-.08,1.09-.17,1.65-.22l1.32-.12.8-1.06c.49-.65,1.29-1.13,2.21-1.68.49-.29,1.02-.6,1.54-.97.34.08.7.14,1.11.14l1.29-.02.24-.26c.36.22.71.44,1.07.67,1.27.81,2.59,1.64,4.07,2.37l1.32.65c-.05.02-.11.04-.16.05l-1.02.2-.68.79c-5.25,6.07-6.39,9.49-7.12,16.68l-.03.28.03.28c.04.44.08.87.12,1.31.34,3.52.64,6.57-1.04,8.94l-.4.54.03-.24c.02-.22.09-.48.17-.79.19-.75.46-1.77.3-3.06l-.98-8.08-4.5,6.78c-.85,1.28-1.35,2.22-1.77,3.05-1.46,1.53-1.55,3.09-1.46,4.31l.22,2.81,1.97-.03c.53.29,1.08.41,1.73.43l3.34-.11-.37-3.02.4-.41,1.6,1.61c.11.13.21.3.32.47h0c-.23.99-.59,2.02-1,3.1l-1.75.02c-.62,0-1.19.17-1.72.48l-2.05.03-.08,2.62-.12.13.02.21c-.14.32-.36.76-.52,1.05-.84,1.65-1.9,3.71-.5,5.59.02.03.06.07.09.11l-.33,1.73c-.06.22-.41.8-.64,1.18-.35.59-.75,1.26-1.04,1.97l-.2.52v.55c0,.47-.11,1.17-.22,1.85-.09.58-.17,1.17-.23,1.76-1.86,3.06-2.7,6.38-3.51,9.59-.44,1.73-.85,3.36-1.41,4.9l-1.39,3.84-.16.19-.05,5.94h1.14s-.14.18-.14.18c-1.81,2.5-.75,5-.19,6.34,0,0,0,.01,0,.02-.26,3.6-2.5,6.26-5.21,9.16.72-1.56,1.15-3.46.31-5.97l-5.85.95s.09-2.51,2.07-2.54l-1.59.02-.88,1.33c-.8,1.21-1.49,2.25-2.35,2.84l-1.29.88v1.21s-.06.09-.06.1l-.85.87-.06,6.38,4.29-1.96c.54-.24,1.1-.25,2.28-.23h.43c-2.01,2.39-3.84,5.12-4.77,8.56l-7.3.1,3.55,3.59-.22.23,1.62,1.64s.01.03.02.04l-.02,2.25,2.64-.03c-.02.46,0,.95.07,1.47l.26,1.77,1.68.62c.92.34,1.76,1.21,2.72,2.22.2.21.4.42.6.62l.9.92h1.02c.06,0,.13.03.19.05.51.17,1.14.36,1.85.36h1.24s.6-.63.6-.63c0,0,0,0,.01,0,.21-.07.48-.17.78-.31l3.53-.05,1.77-1.81c1.14.29,2.29.63,3.46.98,2.81.84,5.72,1.7,8.85,1.97l1.41.12.57-.58,2.14-.03v-1.43c.43-.03.92-.02,1.5-.02,1.41.02,3.16.05,5.06-.64l.3-.11.27-.17c4.43-2.77,9.86-3.56,15.6-4.39,2.84-.41,5.78-.84,8.65-1.54,16.1-4.29,16.02-15.71,15.95-26.75,0-1.25-.02-2.53,0-3.84.09-.16.17-.32.24-.5.09-.09.18-.18.27-.27,1.07-1.06,2.28-2.26,3.19-3.83l.48-.83-.09-.95c-.69-7.24,4.27-10.53,12.52-15.1.78-.43,1.55-.86,2.3-1.29l1.49-.85.02-1.67.52-.36c.45-.31,1.1-.6,1.78-.91.23-.1.48-.21.73-.33.57.77,1.26,1.3,1.61,1.58.08.07.16.13.23.18l.98.88,1.31-.13c1.24-.12,2.48-.19,3.8-.26,3.87-.22,7.87-.44,11.82-2.02l1.86-.74v-1.2s.04-.05.06-.08c2.16-1.91,5.63-1.92,9.29-1.93,1.85,0,3.76,0,5.6-.27l.48-.11c2.25-.71,4.39-1.64,6.47-2.54,3.86-1.68,7.54-3.26,11.44-3.23.55.73,1.07,1.62,1.61,2.54.67,1.16,1.37,2.35,2.27,3.5l.69.89,1.1.21c2.62.51,4.71,1.52,6.57,3.18l.85.76h1.14c2.87.02,6.81.04,9.45,1.28l.63-1.05c.43.14.87.31,1.32.51l-.2.94c.19.09.54.35.85.58.23.17.48.36.74.54.07.18.15.38.22.57.23.61.48,1.24.75,1.8l.85,1.74,1.07-.03c.7,1.77,2.09,3.06,3.18,4.08.15.14.29.27.43.41,1.24,11.14,8.44,18.84,15.41,26.3.54.58,1.09,1.16,1.62,1.74l.04.06c.68,1.09.74,1.27.68,1.58l-.15.82.3.78c.69,1.84,1.54,3.55,2.35,5.2.51,1.03,1,2.03,1.45,3.04l-.06.22c-.11.42-.18.83-.25,1.22-.14.83-.18.86-.27.94l-.96.87-.02,1.3c0,.11-.09.42-.15.65-.15.56-.33,1.26-.35,2.07l-.03,1.66,1.39.91c2.26,1.48,4.05,3.14,5.52,5.13.56,1.02,1.1,2.08,1.62,3.13l.13.26.22-.09c.11.24.23.48.34.72.08,1.78.52,3.52.94,5.21.61,2.42,1.19,4.72.51,6.55-2.44,3.32-2.36,8.25-2.28,13.02.05,3.2.11,6.5-.61,8.88l-1.2,3.98,1.22-.04c-1.04,9.59-2.54,17.64-4.57,24.51-.82,2.58-2.05,5.01-3.34,7.58-2.24,4.46-4.56,9.06-4.78,14.62l-.2,5.22,3.37-1.79c.15.32.32.73.52,1.25l.76,2,2.14-.06c.8-.02,1.42-.3,1.82-.51l1.08-.03c.49.31.79.53,1.08.82l.45.46.6.23c3.03,1.16,5.82,1.34,8.51,1.51,1.8.11,3.52.22,5.2.64,2.05,1.86,4.58,2.96,7.39,3.21.73.35,1.14.64,1.43,1.02l.46.6.69.31c1.21.55,2.43.8,3.51,1.02,2.47.51,2.51.69,2.68,1.53.88,4.35,2.65,8.17,5.26,11.39-.13.43-.26.97-.3,1.62l-.08,1.34.48.48-.02.9.71.71c-1.13,6.52,1.07,9.31,5.94,12.4,1.12,1.13,1.98,2.6,2.89,4.15,1.03,1.76,2.1,3.58,3.68,5.21l.42.37c1.78,1.5,2.69,2.36,2.94,3.4l-.94.96.77,1.83c.88,2.1,2,3.93,3.09,5.71,1,1.62,1.94,3.17,2.63,4.8.2,2.3,1.32,3.99,2.24,5.38l.51.78.28.25c.46.43.96.84,1.46,1.26,1.49,1.26,2.9,2.44,3.25,3.79l.32,1.23,1.1.63c2.18,1.25,4.05,3.19,5.86,5.07.58.6,1.15,1.2,1.73,1.77l.93.91h.31s-.05,1.86-.05,1.86l4.27-1.77c1.08-.45,2.44-.34,4.01-.21,1.1.09,2.33.19,3.62.1.8.12,1.61.35,2.46.6,1.31.38,2.8.81,4.52.88l2,.08.84-1.82c.11-.23.23-.36.87-.7.49-.08.93-.21,1.3-.32.22-.06.52-.15.61-.16l1.23-.05.84-.9c3.58-3.83,5.46-8.9,6.4-12.41l.87-.73c1.18-1.07,2.02-2.21,2.7-3.34.34-.15.64-.33.9-.51,5.19,3.29,10.66,5.57,15.88,7.61,1.33,1.53,2.83,2.46,4.19,3.29,1.1.68,2.06,1.27,2.8,2.1.43,1.04.97,2.02,1.5,2.98.54.97,1.05,1.9,1.38,2.78-.32,3.23.9,5.96,1.99,8.39.39.87.76,1.68,1.02,2.46l.09.24c2.03,4.6,5.83,7.09,9.18,9.28,1.71,1.12,3.32,2.18,4.7,3.46,3.08,3.61,6.68,6.3,10.16,8.9,1.62,1.21,3.15,2.35,4.63,3.58.91,1.8,2.1,3.59,3.47,5.22l.96,1.15,1.49-.08c11.76-.6,23.57-1.22,35.32-1.85l2.74-.15.38-10.71c17.63-.94,35.53-1.94,53.26-2.97,19.4,6.04,38.96,12.05,57.88,17.86l14.63,4.5c-.12.29-.23.58-.34.86-.15.39-.31.79-.48,1.19l-2.19,5.17,5.52-1.05c9.36-1.79,19.03-3.11,28.38-4.39,6.49-.89,13.2-1.8,19.78-2.87l3.42-.55-1.03-3.3c-.15-.48-.28-1.06-.43-1.67-.3-1.28-.63-2.73-1.29-4l-.22-.42-2.22-2.17c-.12-.55-.25-1.06-.38-1.58-.18-.72-.35-1.45-.53-2.28l-.19-.9-.66-.64c-.51-.5-1.05-.92-1.58-1.3l.11-2.42c.02-.52-.05-1.35-.63-2.14.23-4-2.26-6.4-4.14-8.22-.93-.9-1.81-1.75-2.34-2.69-.17-.78-.23-1.5-.15-2.04l.21-1.51-.55-.54.07-1.62-1.34-.95c-.77-.54-1.45-1.1-2.17-1.7-.47-.38-.94-.78-1.45-1.17-.09-.93-.09-1.94-.09-2.98,0-1.48,0-3-.24-4.59l-.24-1.62-1.5-.67c-.26-.11-.51-.22-.77-.33-.28-.12-.67-.27-.91-.4-.02-.37-.04-.75-.06-1.12-.1-1.82-.19-3.4.29-4.9l1.33-4.19-3.18.21-.86-2.88-.66-.57c-1.57-1.36-3.34-2.43-5.05-3.47-1.93-1.17-3.75-2.27-5.02-3.62l-.96-1.01-1.39.08c-1.86.1-3.33-1.37-5.49-3.82-.75-.85-1.53-1.73-2.37-2.5-1.49-2.17-3.31-4-5.07-5.77-2.24-2.25-4.36-4.38-5.47-6.9.48-2.48,1.23-4.89,2.37-7.66.62-.52,1.05-1.08,1.35-1.46.08-.1.14-.19.2-.26l2.82-2.87c1.15-.24,2.55-.04,4.46.28,1.53.26,3.23.55,4.99.46.21,1.73.81,3.75,2.61,5.21l.91.73,1.17-.07c.72-.04,1.28-.29,1.69-.55l3.91-.25-2.28-4.15c.04-.32.66-1.18,1.03-1.7l2.81-3.99-4.1-1.13c-.59-.16-1.08-.33-1.57-.5-.6-.21-1.2-.41-1.92-.61l-1.71-.47-.45.46c-1.39-1.45-2.99-2.63-4.55-3.78-1.55-1.15-3.03-2.24-4.14-3.48-.06-.31-.14-.57-.2-.76-.02-.07-.04-.14-.05-.11l.03-.77-.35-.69c-.94-1.88-3.05-4.13-7.78-4.41-.42-.19-.78-.61-1.46-1.46-.22-.27-.44-.55-.67-.82l-1.12-1.32-1.7.31c-.22.04-.56,0-.92-.06-.21-.27-.43-.56-.65-.87-1.23-1.66-2.62-3.55-4.83-4.58l-1.68-.78-1.45,1.15c-1.45,1.15-2.69,1.54-4.79,1.49h-.45s-.16-.25-.16-.25c-3.26-4.96-8.65-8.8-15.65-11.13l-2.89-4.96c-.09-.52-.19-1.02-.3-1.51-.25-1.15-.48-2.23-.32-3.09l.91-4.68-1.04.27,1.91-8.94c.16-.77.32-1.54.47-2.29.58-2.92,1.13-5.68,2.36-8.3l2.13-4.52-4.39.22.1-1.1-.9-.88.22-.13-.75-.42c-.09-.12-.16-.24-.25-.42l-1.19-2.48-1.67.63c-.09-.03-.19-.06-.28-.09l-1.71-.53c-.51-.31-1.01-.62-1.52-.95-.99-.63-2.02-1.27-3.18-1.92l-.75-.42-.86.04c-.54.03-3.21.33-3.33,3.81l-.06,1.68,1.41.92c.31.21.74.61,1.15,1,.23.22.5.48.81.75l-.16.7c-2.52-2.39-5.35-4.29-8.11-6.15-3.95-2.65-7.68-5.15-10.2-8.84l-.55-.8-.92-.33c-3.78-1.35-4.03-1.73-5.39-3.83-.38-.58-.83-1.28-1.42-2.11-.2-1.18-.46-2.25-.72-3.3-.29-1.16-.56-2.26-.72-3.43l-.14-1.01-.73-.72c-.49-.48-.74-1.01-1.1-1.75l-.78-1.63-1.8-.07c-4.72-.2-7.68,2.89-10.07,5.36-4.17,2.19-5.31,6.1-5.82,9.22-.55,2.86.64,4.51,1.43,5.6.21.29.39.54.53.8l.6,1.09,1.19.35c.59.17,1.09.35,1.58.53.13.05.25.09.38.14.33.92.71,1.8,1.14,2.64-.04.48.05.96.27,1.44.14.3.37.69.75,1.03.19.38.39.72.57,1.02.16.28.3.52.41.74l-.02.65,1.43.92.31-.49c2.3,2.55,5.04,4.71,7.81,6.69l.85.61,2.69-.13-.08,2.54c-.03.82.13,1.51.25,2.07.05.21.11.49.11.59v.21s.02.21.02.21c.21,1.86,1.39,3.05,3.51,3.54l1.13,1.54c.58,1,1.2,1.94,1.79,2.86,1.82,2.8,3.4,5.22,3.68,8.38l.16,1.76-4.75.25,3.94,3.88c-.03.2-.04.4-.03.62l.08,3.08,3.08-.16h0l.89-.04c.72-.04,1.29-.27,1.7-.53l.32-.02c.17,1.17.16,2.32-.02,3.5l-.1.68.2.65c.22.73.53,1.39.83,2.04.25.53.66,1.43.66,1.74l-.07,1.35.8.79s.02.04.03.06c-.05,1.79.45,3.4,1.4,4.58.04.2.08.39.12.56.04.21.11.49.11.58l-.05,1.32.94.93c.73.72,1.55,1.4,2.34,2.06.72.6,1.41,1.17,1.96,1.71l1.31,1.29,2.5,4.44.36-1.64.7.69.03-.76c2.77,1.44,3.42,2.64,3.96,7l.19,1.53,1.36.73c2.48,1.34,4.24,3.16,6.37,5.44.04.32.07.67.09,1.04.09,1.16.2,2.63.92,4.09-.18.81-.2,1.55-.23,2.16l-.11,1.26.95.93c.1.12.19.27.28.41.03.05.07.11.11.16l-.13,3.37.95.93c.72.71,1.55.97,2.08,1.12l.61.6,1.23-.07s.05.02.08.03c.13.05.29.11.5.16.16.41.3,1.22.39,1.73.22,1.24.47,2.64,1.24,3.84.08.13.16.25.25.36l-1.45-.06-.1,2.66.82.24c.23.88.4,2.09.38,3.17l-.05,2.33,2.24.63c.54.15,1.01.24,1.44.31.29,1.25.9,2.46,1.78,3.48,1.46,1.69,3.44,2.61,5.45,2.5l2.2-.12c2.79,3.15,5.86,5.89,9.66,7.97l-.03.77,1.28.95c3.51,2.58,4.27,5.22,3.12,10.87l-.14.68.17.67c.35,1.35.6,2.81.87,4.35.36,2.06.73,4.18,1.37,6.26l.22.72.54.53c.52.51.77,1.04,1.2,2.02.09.2.18.41.28.62-.08.81-.13,1.63-.18,2.44-.06,1.04-.12,2.1-.26,3.1l-3.71.24-.03.7h-4.46s.56.55.56.55l-.31-.22-1.04-.27c-1.71-.47-4.58-1.26-7.16.42l-1.13.73-.07.45c-.68-.25-1.18-.46-1.57-.71l.13-3.14-1.54-.91c-2.35-1.39-4.99-1.75-7.31-2.08-.39-.05-.77-.11-1.15-.16l.08-1.93-.79-.81c-.05-.42.13-1.41.25-2.03.11-.61.23-1.25.29-1.9l.03-.28-.03-.28c-.29-3.17-1.92-5.61-3.36-7.77-.86-1.29-1.67-2.5-2.11-3.72l-.11-.26c-.41-.87-.6-2.11-.81-3.41-.28-1.78-.61-3.8-1.61-5.54l-.22-.37-.31-.3c-.74-.71-1.38-2.01-2.04-3.39-.71-1.45-1.49-3.07-2.65-4.41-.02-.1-.04-.19-.05-.29-.18-.95-.42-2.25-.46-2.84l-.13-2.44-2.42-.36c-.14-.02-.32-.08-.5-.16-.03-.71-.1-1.38-.21-2.03l.09-.05c.23-.11.52-.21.85-.32,1.08-.37,2.71-.92,3.91-2.64l.33-.47.13-.56c.26-1.1.51-2.1.77-3.09.26-1.03.53-2.06.8-3.2l.38-1.62-.68-.68.04-1.02-1.67-.88c-.18-.09-.37-.2-.56-.31-1.59-.88-3.99-2.22-6.56-1.4l-1.54.49-1.84,6.5c-.62-1.14-1.44-2.15-2.23-3.13-.75-.93-1.45-1.8-1.84-2.59l-.59-1.21-1.29-.37c-.44-.12-.97-.37-1.54-.62-.36-.17-.75-.34-1.17-.51-2.66-4.53-5.75-9.52-11.83-11.38l-1.18-.36-1.09.57c-.51.27-1.15.27-1.97.12.88-2.7.82-5.05,0-8.49l-.15-.64-1.31-1.66c-3.94-5.03-5.89-7.13-12.3-8.29-.41-2.78-.96-6.2-4.07-8.51l-.8-.6h-1c-1.41.01-2.52.24-3.5.45-.41.08-.77.16-1.12.21l-2.27-2.24c-.02-.06-.03-.12-.05-.18-.11-.41-.11-.42-.09-.58l.26-1.91c1.38-1.44,2.59-3.07,3.72-5.39l.42-.87-.16-.95c-.16-.96-.23-1.96-.3-3.03-.08-1.16-.16-2.37-.37-3.62l-.21-1.25-1.04-.72c-.06-.04-.07-.05-.27-.38-.4-.67-1.13-1.9-2.92-2.5-.54-.24-1.06-.38-1.55-.45l.02-.47-3.37-3.33-1.95,1.06c-.18.1-.44.17-.77.27-.31.09-.66.2-1.05.34-1.35-2-3.49-2.99-5.21-3.78-.32-.15-.65-.3-.97-.46-.74-.91-1.59-1.56-2.48-2.04l-.77-1.37c-.35-.62-.79-1.32-1.28-2.04v-.45s-.3.01-.3.01c-.92-1.29-2-2.64-3.13-3.78l.05-1.67-.37-.7c-.11-.21-.23-.41-.35-.61l2.12-.09-8.02-5.11c-12.47-7.94-20.73-16.51-25.27-26.2l-.24-.52-.42-.39c-1.09-1.02-2.23-2.04-3.39-3.07-6.64-5.9-12.91-11.48-11.08-20.36l.33-1.61-1.18-1.15c-1.35-1.31-2.74-3.94-3.47-6.55l-.31-1.1-.96-.62c-.75-.48-1.58-.93-2.38-1.37-.13-.07-.26-.14-.39-.21.11-.93.18-1.72.24-2.41.28-3.23.35-3.99,4-8.06l.4-.44c.13-.11.28-.23.42-.38l.83-.84.03-1.18c.02-.62-.12-1.2-.4-1.73l.07-2.78-3.1.51c.22-.05.44-.1.66-.15,1.99-.45,5-1.13,6.34-4.28l.47-1.1-.41-1.12c-.28-.75-.71-1.41-1.09-1.99-.16-.24-.37-.57-.5-.8-.65-5.3-3.86-8.96-6.7-12.19-1.52-1.73-2.96-3.37-3.95-5.15l-.11-.18c-2.57-3.94-6.71-5.35-10.37-6.59-2.19-.75-4.27-1.45-5.8-2.6l-.42-.32-.5-.15c-6.96-2.12-11.36-7.53-15.08-13.05l-.57-.85-.98-.32c-2.01-.66-4-1.41-6.11-2.2-7.32-2.75-14.87-5.59-23.12-4.78-.34-.14-.66-.21-.96-.26-1.62-1.25-2.92-2.96-4.29-4.77l-1.14-1.5-1.02-.26c-1.12-.28-1.78-.86-2.93-2.12l-.36-.4-1.55-.8c-2.29-1.16-4.66-2.37-6-3.92l-.21-.24-.25-.19c-2.69-2.04-5.83-2.83-8.61-3.52-1.31-.33-2.54-.64-3.68-1.05l-1.52-.64c-9.09-3.83-17.69-7.46-27.91-9.02-.4-.2-.77-.32-1.04-.41l-.61-.61-2.95.07c-3.22-3.62-7.4-5.18-11.46-6.69-3.12-1.16-6.07-2.26-8.47-4.25l-.93-.77-1.2.08c-5.61.39-10.48-1.54-15.63-3.59-2.67-1.06-5.43-2.16-8.39-2.96l-.41-.11h-.42c-5.28.07-9.78,2.01-14.14,3.89-2.76,1.19-5.38,2.31-8.14,2.97l-.65.15-.53.42c-3.85,3.07-7.13,5.4-11.42,5.05h-.15s-.15,0-.15,0c-.48,0-.95.12-1.37.3l-.39-.12c-1.55-.48-3.15-.88-4.7-1.27-3.09-.78-6.02-1.51-8.73-2.81l-4.08-1.97c-.08-.09-.16-.19-.24-.29l-.3-.37-.4-.26c-10.65-6.91-19.82-16.18-28.13-25.35l1.55-1.57-2.32-2.11c-14.12-12.81-21.05-13.01-28.38-13.22-4.36-.13-8.88-.27-15.82-3.41v-1s-2.32-.09-2.32-.09l-2.75-1.31v.16c-.22-.17-.45-.35-.68-.53-.59-.47-1.2-.96-1.89-1.4l-.78-.51-.93.02c-5.57.15-10.48-1.77-15.67-3.8-3.05-1.19-6.19-2.42-9.57-3.27-.53-.21-1.14-.34-1.83-.29l-.07,1.03c-.31-.08-.63-.16-.95-.25-2.18-.57-4.6-1.21-7.24-1.21-.56,0-1.14.03-1.72.09l-1.06.12-.33.34s-.08,0-.12,0l-1.87.02-.71,1.48c-.12.12-.34.3-.49.43-.53.44-1.12.95-1.6,1.61l-.8,1.11.19.81-.54.16c-.05.02-.1.03-.16.05l-.7-.86c-.3-.36-.56-.9-.87-1.52-.13-.27-.27-.54-.41-.81h1.31s.82-1.63.82-1.63c.07-.09.32-.29.48-.42.25-.19.52-.41.8-.68l.86-.87.03-4.13-1.26-.91c-2.51-1.81-4.93-3.98-7.28-6.09-3-2.7-6.1-5.49-9.57-7.69-1.3-1.37-2.39-2.95-3.55-4.63-1.26-1.82-2.55-3.7-4.22-5.45l-.14-.14c-1.62-1.49-3.41-2.88-5.14-4.23-2.15-1.68-4.23-3.31-5.98-5.07v-1.93c.77-.37,1.62-.86,2.36-1.65l3.28-3.42-4.49-1.47c-.11-.05-.4-.29-.62-.47-.46-.38-1.04-.85-1.79-1.26.49-.72,1.02-1.41,1.57-2.13.49-.64.99-1.29,1.48-1.99l.25-.35.14-.4c1.04-3.03,1.07-7.83-4.74-13.51l-.64-.63-.89-.17c-.94-.18-1.84-.48-2.79-.79-.75-.25-1.51-.5-2.35-.71-1.09-1.44-2.3-3.01-3.61-4.36l-.89-.92h-1.29c-.62.01-1.2.17-1.73.48l-2.14.02v1.81s-.09,0-.09,0l-.87.88c-.52.53-.91,1.03-1.25,1.48-1.19-5.36-5.96-6.35-9.11-7.01-.64-.13-1.25-.26-1.81-.41-1.64-1.33-3.34-2.29-4.98-3.23-2.34-1.33-4.38-2.5-5.91-4.48-.51-1.64-.05-3.37,1.22-4.57l2.27-2.14-2.23-2.18c-.29-.28-.57-.58-.86-.87-1.04-1.07-2.22-2.28-3.79-3.19l-.88-.51-1.01.13c-.36.05-.89-.06-1.5-.18-.94-.19-2.11-.42-3.45-.25l-.16.02v-.07s-1.53-.9-1.53-.9c-1.54-.9-2.35-2.26-3.46-4.13l-.08-.12.71-5.58-2.54,2.56-2.98-4.92-1.08,8.54c-.02.17-.01.33-.02.5l-.91.91v2.89c-.06.04-.11.07-.17.11-.89.11-1.96-.15-3.17-.43-1.4-.33-3.12-.72-4.97-.56l-.11-.11c-.57-.57-1.13-.85-1.46-1.02l-1.39-1.39-1.92.92c-.98.47-2,.2-3.86-.35-.5-.15-1.02-.3-1.58-.44-.11-.3-.21-.59-.27-.82l-.11-.45-.24-.4c-.5-.81-.91-1.52-1.26-2.14-.44-.76-.83-1.43-1.23-2.03l.24.05c1.33.28,2.36-.17,2.92-.41.03-.01.05-.02.08-.04l.84-.11.72-.72c.72-.73,1-1.57,1.17-2.07,0,0,0-.01,0-.02l.6-.6v-3.35s-.82-.87-.82-.87c-2.02-2.12-3.44-3.43-6.96-3.63l-3.16-.18v3.17c0-1.51,1.31-2.53,2.53-2.54l-.8,4.08-1.49,1.5.95,1.92c.23.46.46.84.66,1.15-1.39-.95-3.3-1.6-6.42-2.22l-1.84-.37-.76,1.01c-.08-.17-.16-.34-.23-.51-.82-1.8-1.52-3.35-1.5-4.82l.02-1.27-3.17-3.18-1.31.04c-.54.02-1.1.02-1.66.02-2.97,0-6.69-.01-9.67,2.55l-1.04.89v.66c-.07,0-.14,0-.21,0-1.25-.06-2.96-.14-4.68.91l-.31.19-.14.14h-.02c-.33.18-.88.46-1.45,1.03l-.87.88v1.23c0,.94.22,1.62.37,2.08.03.08.06.16.07.19v.95s.54.78.54.78c.9,1.28,2.09,2.59,3.24,3.86,1.28,1.41,2.61,2.87,3.43,4.17l.69,1.09c-.36.05-.74.09-1.15.14-.33.03-.66.07-.99.11l-.72.09-.6.41c-1.68,1.15-3.25,2.17-4.92,3.24-1.34.86-2.68,1.73-4.08,2.67l-3.02,2.03,1.69,1.7v.55c-.07.14-.15.31-.22.51,0,.01-.02.03-.02.04-1.66.59-2.9,1.81-3.71,2.66-2,1.32-5.18.66-7.58-.64-1.24-1.04-2.66-2.1-4.29-2.56l-1.03-1.03h3.62c.62,0,1.2-.16,1.73-.47h2.16s0-1.18,0-1.18l2.71,2.72v-6.45c.31-.53.46-1.1.46-1.73,0-.62-.15-1.2-.45-1.72v-6.48s-5.03,5.08-5.03,5.08l-4.57-4.59v5.96c-.43.36-.7.79-.86,1.18-.07.16-.17.46-.21.85-.62,1.51-.12,2.98.07,3.56.03.08.06.16.08.25l-.14,2.58-.13-.13h-1.37c-.36-.25-.83-.63-1.14-.89-.06-.05-.11-.09-.17-.14-.05-.2-.1-.42-.15-.64-.35-1.47-.78-3.29-1.8-4.76l-.83-1.19h2.71s-.99-3.76-.99-3.76c-1.9-7.2-6.64-13.2-10.34-17.28.42-.92.65-1.85.82-2.58.12-.53.24-1.03.38-1.36l.79-1.87-1.45-1.43c-2.31-2.28-3.84-4.31-4.8-6.38l-.81-1.74h-.74s-1.58-3.18-1.58-3.18h-1.9c-.07-.45-.02-1,.1-1.72h2.03s0-6.55,0-6.55l-.93-.89c-.8-.77-1.98-2.36-3.27-5.68.07-.11.14-.22.22-.34,1.57-.85,2.81-1.68,4.01-2.48l3.02-2.03-4.76-4.79c-.51-1.81-.59-3.78-.67-5.86-.06-1.54-.12-3.12-.36-4.77l-.1-.84-.58-.67c-.07-.15-.15-.61.1-1.96.45-.9.55-1.85.63-2.59,0-.03,0-.07.01-.1.37-.29.67-.59.91-.83l.87-.88v-.2c.28-.17.61-.4.94-.74l.87-.88v-7.01s-2.13,1.07-2.13,1.07c-.27-.92-.78-1.91-1.67-3.05l-2.1-2.67-.52.52s-.01,0-.02-.01c.02-.03.04-.06.06-.09,1.1-1.68,2.3-3.51,3.03-5.62h1.66l.32-2.64c.07-.54.79-1.71,1.27-2.48.17-.27.33-.54.5-.81.12-.02.22-.02.31,0l3.19.39.17-3.21c.04-.8-.1-1.51-.25-2.07.02-.02.04-.04.06-.06.13-.13.31-.31.35-.34l1.26-.63.03-.14,1.54,1.55h5.15s0-2.18,0-2.18c.3-.53.45-1.11.45-1.73v-1.25s-.64-.63-.64-.63c-.02-.04-.04-.09-.07-.15.78.04,1.69-.04,2.53-.48.19.03.39.05.6.05h1.25l.54-.54.45-.23c5.12-2.55,4.98-6.59,4.86-10.15l-.06-2.11-.1-.09.54.18,1.11-.56c.56-.28,1.18-.66,1.79-1.02.51-.31,1.03-.62,1.38-.8l.89-.45,2.77-5.55-1.52-1.53c-.13-.14-.27-.26-.4-.38l.37-.4v-1.19c0-.44-.07-.86-.23-1.26,1.53-.7,3.52-1.06,5.57-1.44,1.24-.23,2.53-.46,3.74-.78l.46-.12.4-.26c1.6-1.04,2.67-1.57,3.74-1.38l2.48.43.85-2.37c.1-.27,1.2-1,3.37-1.22l6.27-.65-2.54-2.54-.17-1.15c-.11-.71-.23-1.43-.35-2.17-1.02-6.17-1.44-10.49,1.94-13.27,2.29-.78,3.72-2.81,4.79-4.33.38-.54.74-1.05,1.04-1.38l1.95-2.12-1.6-1.61v-.57s-.5-.76-.5-.76c-.15-.22-.28-.43-.4-.62v-.53s.03-.06.03-.07l.85-.91.03-1.2c0-.18.11-.62.28-1.09,1.3-.64,3.14-1.16,4.33-1.49l1.29-.36.6-1.19c.14-.29.3-.52.49-.82.25-.37.56-.84.87-1.46l.79-1.58-1-1.46c-1.64-2.39-1.91-4.89-.93-8.38l.29-1.03-.43-.98c-.81-1.85-1.18-3.84-1.15-6.35.62-.4,1.32-.77,2.01-1.11l1.67-.83v-3.64s-.47-.74-.47-.74c-1.83-2.87-4.37-3.73-6.55-4.29-.54-.48-1.08-.99-1.64-1.52-1.69-1.61-3.59-3.42-6.09-4.56.19-.97.3-2,.27-3.04v-.41s-.14-.4-.14-.4c-.23-.73-.94-2.22-2.97-2.54.03-.03.06-.05.09-.08,1.04-.23,1.95-.69,2.72-1.08l.27-.14h6.07l-3.94-3.94c.85-.6,1.68-1.22,2.49-1.84,1.63-1.23,3.17-2.4,4.69-3.21l.87-.46.43-.89c1.07-2.24,3.16-4.27,5.19-6.22,1.19-1.15,2.42-2.33,3.47-3.59l.7-.84v-.73s.03-.06.03-.07l.87-.88v-1.24c0-1.63.28-3.82.86-6.68l.2-.99-.44-.91c-.65-1.34-1.52-2.56-2.35-3.75-.47-.67-.93-1.31-1.33-1.95l.36-.36v-.76c.19-.4.46-1.04.46-1.84v-.85s-.45-.73-.45-.73c-.62-1.01-1.39-2.03-2.14-3.02-2.3-3.06-3.47-4.93-3.35-6.47l1.65,1.12,1.7-1.23c2.19-1.59,4.28-4.42,1.77-8.89l-.31-.56-.51-.38c-5.07-3.78-10.48-6.59-15.72-9.31-1.75-.91-3.55-1.84-5.32-2.81-1.21-1.67-2.56-3.24-3.88-4.76-2.05-2.37-4-4.62-5.29-7.11-1.54-6.79-5.55-13.37-10.56-17.26-1.66-1.26-2.77-3.36-3.95-5.58-.89-1.68-1.8-3.41-3.04-4.96-.24-4.85-2.42-8.92-4.52-12.87-1.6-2.99-3.11-5.82-3.67-8.79l-.12-.66-.39-.54c-1.22-1.69-1.84-3.69-2.49-5.81-.69-2.23-1.4-4.53-2.84-6.74-.71-1.16-1.48-2.35-2.24-3.5-3.34-5.12-6.8-10.41-6.38-16.01l.14-1.85-1.6-.95c-6.34-3.76-9.05-7.89-8.53-13l.15-1.42-1.01-1.01c-.45-.45-.95-.73-1.39-.92v-.37s-.77-.86-.77-.86c-.87-.97-1.84-1.77-2.78-2.54-.32-.26-.63-.52-.92-.77-1.12-3.29-3.32-6.49-5.64-9.49-.54-3.37-2.45-5.96-4.15-8.28-1.26-1.71-2.45-3.33-2.91-5.02.18-.75.36-1.54.53-2.34.08-.35.16-.71.24-1.06h.12l.76-.76h.02c.33-.18.89-.45,1.46-1.03l2.99-2.92-3.72-1.86s-.12-.12-.2-.22v-4.51l-1.19-.9c-2.75-2.09-4.84-6.08-6.36-9.32l-.26-.57-.47-.41c-2.22-1.96-4.45-3.28-6.8-4.68-.39-.23-.79-.47-1.19-.71-1.31-2.07-2.81-4.32-5.27-5.84-2.38-4.88-7.07-7.06-11.24-9-1.54-.72-3-1.39-4.28-2.17-2.33-2.06-4.95-3.35-7.49-4.6-2.67-1.32-5.19-2.56-7.13-4.59l-.47-.49-.63-.24c-7.47-2.84-14.37-5.99-20.51-9.36l-.3-.17-.33-.09c-.72-.2-1.46-.38-2.2-.57-2.02-.5-3.94-.97-5.47-1.87-1.71-2.66-4.21-4.17-6.42-5.51-1.38-.84-2.69-1.63-3.6-2.58l-.32-.34-.41-.22c-1.03-.56-2.12-1.02-3.17-1.47-2.04-.86-3.97-1.68-4.98-2.98-.1-.51-.18-.98-.26-1.42-.25-1.43-.48-2.78-1.13-4.4l-.34-.87-.77-.52c-6.16-4.12-12.3-8.8-18.79-14.3l-.67-.57-.87-.12c-.74-.1-1.49-.15-2.25-.15-.84,0-1.68.07-2.51.19-.57-9.06-1.49-18.58-4-27.5-.22-4.18.12-8.7.44-13.08.21-2.82.43-5.73.5-8.58v-.29s-.04-.28-.04-.28c-.27-1.6-.59-3.15-.91-4.65-.64-3.04-1.25-5.92-1.31-8.92.05-2.69.49-5.16.96-7.78.3-1.68.61-3.41.82-5.25.82-3.02.99-6.16,1.16-9.21.25-4.6.49-8.96,2.94-12.19.19-.05.36-.11.5-.16.08-.03.16-.06.18-.07h3.14s-.14-3.14-.14-3.14c-.04-.84.07-1.76.18-2.74.3-2.61.68-5.86-1.71-8.94l-.86-1.1c1.13-1.6,1.58-3.19,1.83-4.71.87-1.85.48-3.63.24-4.74-.08-.36-.19-.84-.18-1.06,2.02-7.65,1.62-15.43-1.28-25.13.03-1.77,1.07-3.46,2.27-5.41,1.37-2.23,2.92-4.76,3.19-7.94l.06-.72-.28-.67c-1.4-3.4-1.71-5.77-1.17-8.75l.16-.89-.35-.83c-.24-.57,0-1.41.4-2.72.36-1.18.8-2.61.79-4.21.88-2.29,1.32-4.55,1.74-6.75.42-2.2.83-4.28,1.64-6.21l.13-.37c.5-1.81.52-3.62.54-5.22.01-1.11.02-2.18.2-3.1,4.84-4.99,5.28-12.23,5.64-18.09.02-.35.04-.71.07-1.06,1.1-1.71,1.67-3.37,2.17-4.85.44-1.29.83-2.43,1.52-3.47.5-.35.87-.73,1.17-1.03.13-.13.32-.32.36-.35l1.14-.57.38-1.22c.79-2.54.55-4.64.33-6.48-.1-.87-.19-1.69-.19-2.55v-.92s-.5-.77-.5-.77c-.53-.79-1.03-1.42-1.51-2.02-.29-.36-.56-.71-.83-1.07-.67-5-.4-10.51.82-16.41,1.46-1.38,2.95-2.5,4.5-3.67l.95-.71.2-1.17c1.77-10.08.57-18.99-1.77-29.25-.43-2.35-.57-4.89-.72-7.58-.25-4.51-.51-9.17-2.19-13.4.31-1.39.54-2.81.76-4.19.74-4.61,1.39-8.59,4.6-10.79l1.65-1.13-.41-1.96c-.59-2.79-.95-5.2-.82-7.86l.06-1.21-.79-.91c-.37-.42-.59-.76-.38-2.03.49-.54.92-1.06,1.35-1.57.54-.65,1.05-1.26,1.63-1.85l.38-.38.22-.49c2.22-4.87,3.11-9.92,3.98-14.8.81-4.56,1.57-8.87,3.34-12.97l.2-.46.04-.5c.2-2.81.98-4.03,3.22-6.29l.44-.44.23-.58c1.29-3.26,2.7-5.85,4.6-8.4l.84-1.14-.34-1.38c-.17-.7-.27-1.32-.36-1.98-.08-.5-.15-1.01-.26-1.54.46-.87.98-1.62,1.55-2.45.48-.68.97-1.39,1.47-2.22l.33-.56.07-.65c.56-5.03,1.79-9.71,3.95-15.06.15-.1.29-.19.42-.28.29-.2.52-.35.81-.5l1.64-.83v-1.84c0-.11.08-.42.14-.64.11-.42.23-.93.29-1.5.5-1.55.65-3.17.79-4.74.1-1.13.21-2.29.45-3.21.16-.12.31-.24.45-.36,1.18-.17,2.62.17,4.14.52l3.15.72.85-2.61c.93-2.88,1.26-5.39.05-8.52.93-1.97,1.25-3.89,1-5.94l-.11-.87-.56-.68c-3.32-4.03-4.02-8.74-2.14-14.39l.21-.64-.08-.67c-.72-5.77-2.64-11.16-4.5-16.37-.73-2.05-1.49-4.17-2.15-6.26.65-7.1,2.09-14.59,7.44-17.49l1.38-.74.18-1.55c1.21-10.65,3.22-19.3,6.15-26.46l.22-.54v-.59c0-2.81-.74-5.27-1.47-7.65-.59-1.95-1.15-3.78-1.21-5.6v-.46s-.17-.43-.17-.43c-.53-1.52-1.46-2.78-2.63-3.68,1.67.41,3.34,1.04,5.16,1.72l4.84,1.8v-3.5c.3-.53.45-1.1.45-1.72,0-.57-.12-1.09-.37-1.59.07-.33.18-.72.27-1.04.27-.96.56-2.03.59-3.18.55-1.29,1.09-2.45,1.75-3.48l.45-.69.03-.82c.03-.59.01-1.19,0-1.79-.03-1.06-.05-1.98.21-2.59l.37-.83-.16-.9c-.73-4.07-1-7.38-.07-11.26.5-1.27.85-2.49,1.16-3.57.53-1.84.96-3.3,1.87-4.49,2.08-2.32.83-4.72.38-5.59l-.34-.66-.61-.42c-3.84-2.67-9.79-3.8-14.13-2.68l-.8.21-.58.59c-1.22,1.23-1.51,2.89-.87,4.32v.77c-1.02.48-2.03,1.06-3.14,1.78l-.49.32-.33.48c-.61.88-1.13,1.91-1.59,2.82-.28.55-.54,1.06-.76,1.42l-.89,1.47.82,1.51c.23.42.45.86.67,1.32,1.05,2.13,2.34,4.74,4.77,6.29.02.03.04.06.07.09l-.39.4c-1.85.48-3.21,1.1-4.05,1.84l-1.3,1.14.34,1.7c.14.71.36,1.33.55,1.87.03.09.06.18.09.26-.3.21-.56.43-.75.62l-.47.48-.22.63c-.82,2.31-.39,4.17-.04,5.67.15.66.29,1.23.31,1.82v.17c-1.71-.05-3.38.12-4.88.28l-1.55.15-.53.28c-2.24,1.19-3.31,3.25-4.18,4.9-.35.66-.68,1.3-1.03,1.77-.38-.37-.76-.85-1.16-1.34-.02-.03-.04-.05-.07-.08,1.19-1.35,2.15-2.67,2.96-4.54l.66-1.51-1.17-1.75c-.51-.77-1.08-1.65-2.1-2.51l-.46-.38-.57-.18c-.55-.17-1.08-.29-1.62-.36.02,0,.04-.01.05-.02.89-.27,2.23-.67,3.43-2.07l.66-.78.05-1.02c.1-1.87-.36-3.45-1.02-4.82l.41-1.11c1.29-3.53,1.8-6.77,1.55-9.9l-.1-1.19-.88-.8c-.38-.34-.6-.66-.72-1.13h1.3s.88-1.42.88-1.42c.64-1.03,1.17-2.62,1.6-4.73.32-.37.62-.75.91-1.12.41-.52.8-1.01,1.13-1.35l.49-.49.22-.66c1.18-3.5.04-6.95-1.44-9.95.25-1.07.49-2.24.74-3.43.97-.31,1.73-.68,1.96-.8l1.52-.77.12-1.7c.16-2.36.49-5.3.86-7.72l1.46.51.9-.92h2.47s-.29-3.27-.29-3.27c-.1-1.13.05-2.23.49-3.49.42-.41.84-.86,1.25-1.33.1.13.21.25.33.37l.68.68.95.16c.22.04.43.06.64.07v.26c-1.42,1.3-1.38,3.37-1.36,4.92,0,.27,0,.53,0,.74l-.08,3.07,3.01.05c.29.21.78,1,1.08,1.48.18.28.35.56.53.82l.89,1.32h3.4s1.21.02,1.21.02l.88-.88c.13-.12.31-.22.48-.34.43-.29.92-.62,1.35-1.06l.63-.63.18-.87c.28-1.37.46-2.79.52-4.21l1.13,1.15,2.08-1.46c.3-.21.87-.43,1.43-.64,1.07-.41,2.4-.92,3.45-1.96l.89-.88v-1.25c0-.6-.09-1.21-.2-1.76.3-.23.62-.47.81-.56l3.43-1.74-2.53-2.9c-2.58-2.97-4.87-6.64-6.83-10.96.18-.08.37-.16.58-.27l1.1-.56.39-1.17c.08-.23.14-.44.2-.64.01-.04.02-.08.03-.12l1.6-.98-.38-2.03c-.46-2.51.62-4.38,2.42-7.23.44-.69.87-1.38,1.28-2.09l.4-.69v-7s-3.94,1.08-3.94,1.08c-.24.07-.69.19-.99.23l-.67-.83h-.32c.77-.17,1.53-.36,2.28-.55,1.17-.29,2.28-.57,3.4-.77l2.48-.43v-7.34s-.81-.87-.81-.87c-.48-.51-.82-1.08-1.2-1.74,1.04-.91,1.95-1.89,2.79-2.79,1.29-1.39,2.51-2.71,3.95-3.5l.79-.43.42-.8c.44-.83,1.11-1.34,2.27-2.17.99-.71,2.11-1.51,3.17-2.73l.29-.33.18-.4c2.39-5.33.7-10.74-4.3-13.77l-.72-.44h-5.17s0,2.19,0,2.19c-.08.14-.15.29-.21.44-1.4,2.31-.16,4.75.39,5.84,0,0,0,0,0,.01-.74.21-1.49.46-2.23.79-.16-.7-.42-1.41-.79-2.15l-.55-1.09-1.16-.39c-1.07-.36-2.14-.97-3.27-1.61-2.39-1.35-5.09-2.88-8.66-2.59l-.35.03-.33.11c-1.03.33-1.63.9-1.99,1.43-.16-.26-.32-.53-.46-.8.82-1.92,1.07-3.74.77-5.37,2.51-1.95,5.21-4.37,6.37-7.78l.57-1.68-.27-.29h.1s.84-1.84.84-1.84c.16-.35.46-.83.77-1.33.55-.88,1.17-1.88,1.56-2.98l.43-1.19-.56-1.14c-.12-.24-.19-.43-.25-.6-.19-.5-.47-1.27-1.2-2l-.24-.24-.29-.18c-1.02-.65-2.03-.95-2.91-1.22-.05-.01-.1-.03-.15-.05-.03-.4-.07-.82-.14-1.22l4.82.79.24-3.27c.06-.77.07-1.53.05-2.26.04.09.07.18.11.27.25.65.54,1.39.54,1.78l.03,2.98h1.77c.32.31.58.73.84,1.24-.04.55-.11,1.12-.18,1.73-.12.98-.25,2-.25,3.09v3.01s1.33,0,1.33,0v2.01s1.64.83,1.64.83c.45.23.82.37,1.13.49.02,0,.04.01.05.02l.6.61,1.11.09c3,.24,5.58-.64,7.68-2.64l1.59-1.52-.97-1.98c-.34-.69-.7-1.22-1.03-1.64v-.83s.45-.09.45-.09v-.78s1.99-.68,1.99-.68c.73-.25,1.34-.5,1.95-.75.51-.21,1.01-.41,1.62-.62l1.72-.58.28-1.79c.2-1.25-.1-2.35-.32-3.15-.05-.19-.11-.38-.14-.56l-.07-.4-.17-.36c-1.04-2.2-.45-4.35.61-7.67,1.03-3.23,2.2-6.9.9-11.01l-.54-1.71.68-.69v-.98c.02-.07.05-.15.07-.22.17-.51.37-1.14.37-1.84v-1.23l-2.37-2.41c.67-.76,1.31-1.58,1.86-2.38l3.23-4.71h-3.33s.68-1.37.68-1.37l-1.07-1.47c-.21-.28-.41-.62-.62-.97-.49-.81-1.04-1.72-1.77-2.44h2.24s.84-1.61.84-1.61c1.15-2.2,1.41-5.47.63-7.79l-.69-2.05h-2.16c-.5,0-.93.07-1.29.15-.97-.86-2.02-1.55-3.09-2.04l.58-1.96c.51-1.73.85-3.41,1.18-5.04.4-1.99.78-3.88,1.45-5.68l1.36-3.67-2.41-.22-.1-1.44c-.07-.98.01-1.38.19-2.24.03-.16.07-.32.1-.49.23-.43.37-.83.46-1.13,0,0,0-.01,0-.02l.59-.6v-1.23c0-.61-.15-1.18-.44-1.71v-.16l-.46-.63c-.01-.07-.02-.14-.03-.21-.09-.65-.23-1.73-1.04-2.77l-.41-.52-.59-.3c-1.42-.72-2.38-.8-3.15-.78h-2.99s0,3,0,3c0,.42-.08.8-.19,1.27-.12.55-.26,1.17-.26,1.91h0c0,.28,0,.47-.02.65h-.76s-.84.71-.84.71c-1.01.86-1.58,1.73-2.08,2.51l-2.23,3.35,3.25,1.45c.3.13.59.25.89.35l-2.06,1.4-.21.21c-.42.43-1.19,1.22-1.7,2.29l-4.16,2.13,1.3,2.65c.07.15.14.41.21.71-.58.07-1.09.19-1.55.29-.29.06-.58.13-.89.18l-.98.15-2,1.99v1.22c-.02.09-.06.17-.08.26-.09.27-.2.62-.28,1.06-.19.38-.3.73-.39.99,0,0,0,0,0,.02l-.37.38-.17.9c-.09.5-.21,1-.32,1.51-.39,1.76-.82,3.75-.62,5.71l.11,1.05.63.64c-.14,1.49-.34,2.95-.54,4.38-.45,3.31-.92,6.74-.7,10.46-.08,3.19,1.25,7.51,3.93,12.86l-1.73-.45v3.08c-.3.53-.45,1.1-.45,1.72v.36l.08.35c.17.69.26,1.42.36,2.25-.42-.76-.56-1.73-.7-3.22l-.16-1.65-1.47-.75c-.54-.28-1.05-.44-1.49-.56,1.35-8.58,1.37-18.21.05-27.15l-.06-.39-.15-.36c-.5-1.15-1.3-1.97-2.03-2.6.14-.11.28-.22.41-.35l.88-.8.1-1.18c.05-.58.13-1.13.21-1.69.18-1.25.38-2.66.25-4.24l-.08-1.01-.67-.75c-.29-.33-.66-.84-1.04-1.38-.04-.05-.07-.1-.11-.15l.17.03,1.14-1.48c1.8-2.34,3.94-4.48,6-6.54l2.17-2.18-2.23-2.12c-.16-.15-.32-.31-.47-.46,1.49-.15,2.77-.92,3.88-2.31l.65-.82v-.7s.04-.08.04-.08l1.81-1.84-1.55-2.06c-.41-.54-.64-1.13-.91-1.91,1.68-.15,3.43-.13,5.24-.11l4.29.04-.98-3.79c-.87-3.37-2.24-7.51-4.85-10.92.14-.09.27-.19.4-.28,1.17-.82,2.06-1.44,3.08-1.94.31.21.68.44,1.13.67l3.23,1.64,1.01-3.48c.32-1.09.72-2.18,1.14-3.34,1.01-2.76,2.06-5.61,2.1-8.81l.09-6.54-5.02,4.2c-1.06.89-1.91,1.89-2.63,2.93v-.93s.64-.5.64-.5c3.66-2.89,2.7-6.85,2.07-9.47-.28-1.15-.54-2.24-.47-3.09l.1-1.25-.82-.95c-1.47-1.7-2.53-5.26-2.93-6.6l-.37-1.23-1.15-.58c-1.53-.78-3.37-.77-4.48-.77h-3.23s.25,3.23.25,3.23c.13,1.7-.65,3.51-1.47,5.42-.59,1.37-1.2,2.79-1.53,4.3l-.19-.06c-1.16-.38-2.14-.77-3.34-1.27l-1.87-.78-1.87,1.9h0c-.9.93-1.29,1.93-1.17,2.92-.03-.02-.06-.04-.09-.05-.66-.4-1.28-.78-1.73-1.17l-1.54-1.35-1.78.92c-.84-.48-1.67-.68-2.39-.75-.69-.79-1.14-1.83-1.63-3.07h3.36s-.32-3.29-.32-3.29c-.04-.37-.02-.75.04-1.16l3.17,2.15h1.44s1.33,1.35,1.33,1.35h.77c.4.19,1.03.44,1.81.44h1.27s2.18-2.23,2.18-2.23v-1.22c0-.7-.2-1.33-.36-1.84-.03-.08-.05-.15-.07-.23v-.57s-.42-.71-.42-.71c-.71-1.21-1.48-3.63-1.82-5.75l-.41-2.53h-2.68c-.04-.16-.07-.34-.1-.5-.04-.22-.08-.46-.14-.72.71-1.8.76-3.59.16-5.66l-.21-.72-.53-.54c-.97-.99-1.67-1.71-3-2.38l-1.13-.58-1.2.42c-.44.15-.95.24-1.54.34-.42.07-.86.15-1.33.26-.04-.01-.08-.02-.11-.03l5.46-1.99-5.21-3.26c-.56-.35-1.02-.83-1.45-1.4.11.09.22.19.31.27.43.39.92.83,1.5,1.19l.73.47h.88c.1,0,.39.07.6.13.2.05.41.1.64.15,2.76,2.54,6.3,3.13,9.2,3.62.71.12,1.39.23,2.02.37.16.52.38,1.14.68,1.92l.24.49c.44.72,1.02,1.32,1.58,1.89.36.37.84.87.98,1.12l.48.93.98.41c.07.04.26.18.39.27,2.12,1.56,4.07,1.62,5.81.18l1.01-.84.07-1.31c.11-2.07-1.2-3.34-1.82-3.95-.05-.05-.11-.1-.17-.16-1.01-3.42-3.51-5.8-5.54-7.72-.76-.72-1.47-1.4-2.04-2.06l-.79-.92-1.21-.11c-1.45-.13-2.67-.18-3.65-.22-3.35-.12-3.93-.15-6.94-3.83-.19-.38-.3-.66-.37-.85l.83-3.26h-.82c.35-.51.81-1.08,1.29-1.68.59-.73,1.21-1.49,1.74-2.3l2.11-3.24-3.67-1.24c-.89-.3-1.73-.44-2.46-.56-.07-.01-.14-.02-.2-.03-.96-2.32-2.21-3.77-3.53-5.29l-1.02-1.19-1.56.16c-.06,0-.11.01-.17.02.04-.59.11-1.22.19-1.86.09-.75.18-1.52.21-2.29l.06-1.4-1.03-.95c-1.29-1.19-2.79-2.01-4.22-2.73l-.41-.21-.57-.58v-.45s-2.35-2.41-2.35-2.41l-.52-.12c-.51-.32-1.62-.9-3.12-.5l-1.12.28-.62,1.01c-.19.2-1.18.53-2.65.46l-1.77-.08-.93,1.52c-.28.46-.63.72-1.33,1.2-.27.19-.57.39-.87.63l-.78-1.06c-1.42-1.95-2.71-3.68-3.91-5.24-.05-.35-.11-.69-.17-1-.06-.33-.16-.84-.16-1.01l.03-4.97-.16.08c.82-1.8.51-3.48.3-4.62-.05-.27-.1-.54-.13-.81l-.11-1.03-.72-.74c-.57-.58-1.14-.87-1.45-1.03l-.8-.82-2.29.08c-3.65.14-7.1.28-9.18-1.78l-.78-.78-1.1-.09c-1.75-.14-3.45-.4-5.12-.78,1.03-.08,1.9-.46,2.56-1.08,1.52.38,3.17.57,4.96.57h2.58s.44-2.47.44-2.47c.03-.19.09-.38.14-.58.22-.8.51-1.88.33-3.12l-.14-.96-2.01-2.05-2.97.02-.76.78h-.02c-.2.11-.48.26-.8.49-.69-.61-1.34-1.07-1.94-1.5-.21-.15-.41-.29-.61-.44-.1-.73-.34-1.54-.84-2.36l-.87-1.45h-1.7c-.1,0-.38-.06-.59-.11-.28-.07-.59-.15-.94-.2-.16-.09-.3-.16-.41-.22l-.77-.79-2.31.03-.06-.59-1.31-.78c-3.44-2.04-6.19.33-7.5,1.47-.24.2-.47.41-.7.59l-.62.47-.3.68.02-1.5-1.17-.92c-.35-.28-.71-.48-1.03-.63v-.47s-2.2-2.25-2.2-2.25h-1.28c-.16.02-.32.02-.47.03l.02-2.4-1.6-.85c-.68-.36-1.29-.56-1.77-.71-.09-.03-.18-.06-.25-.08-1.5-3.33-5.52-4.87-9.04-4.88h-3.6s0-.29,0-.29l-.77.28h-.98s.18.29.18.29l-2.49.9c-.57.2-.92.17-1.86.03-.59-.08-1.29-.14-2.09-.18-1.31-.71-2.63-1.03-3.83-1.33-.26-.06-.51-.12-.75-.19-.61-1.58-1.39-2.99-2.98-4.37l-.87-.75h-.64c-.4-.18-1-.42-1.77-.42h-.06l-1.25.02-.44.46-2.08.03-.07,2.89c-.05,2.34.26,4.76.93,7.2l.2.73.52.55c.37.39.76.81,1.15,1.24.85.93,1.72,1.88,2.6,2.7-.03.09-.06.17-.08.24,0,.01,0,.02-.01.03l-.81.83-.86-.1c-1.03-.12-1.9-.37-2.73-.6-2.69-.75-5.05-1.13-7.96,1.13-.04-.12-.09-.25-.15-.37l-.22-.5-.38-.39c-.56-.58-1.14-.87-1.45-1.02l-.77-.79-1.29.02c-1,.02-1.73.3-2.19.49h-.46s-.74.5-.74.5c-1.59,1.06-2.98,2.49-4,4.13l-.45.71v.39c-.19.39-.45,1-.46,1.77-.03.88.26,1.68.56,2.53.1.27.25.71.3.91l.03.83.54.74c.26.35.56.76.9,1.19-.54-.1-1.08-.19-1.61-.32-.82-.33-1.6-.77-2.42-1.24-1.62-.92-3.44-1.94-5.86-2.28l1.11-.02.83-.71c.11-.1.23-.16.35-.23.49-.31,1.24-.78,1.88-1.64l.58-.78.05-4.03-2.21-2.26-3.85.07-2.65,2.73c-.85.88-1.28,1.57-1.3,2.97v1.24s.86.89.86.89c.71.73,1.54,1.01,2.05,1.18l.53.54-.56.29c-2.39,1.23-4.92,1.64-7.86,2.11l-.75.12-.54.36c-1.09.73-1.82,1.15-2.59,1.33-3.71-.89-8.37-.06-11.59,2.12l-.51.35-.33.52c-1.46,2.29-2.62,4.93-3.54,8.09l-.49,1.69,3.69,3.76,1.61-.34c12.39-2.6,17.66,2.27,26.38,10.33.86.79,1.74,1.61,2.66,2.44l.29.27.35.18c5.5,2.83,9.42,7.52,13.57,12.49,2.23,2.67,4.53,5.43,7.1,7.88.91,1.09,1.33,2.8,1.79,4.62.5,1.99,1.01,4.06,2.26,5.85l.91,1.3,1.59-.02c.66-.02,1.29.07,2,.17.53.07,1.11.15,1.76.19.06.05.13.09.19.13.12,1.28-.64,2.81-1.8,3.5l-3.87,1.33c1.17,5.48,4.4,9.95,7.64,13.75-.03.26-.03.53,0,.82.18,2.1,2.11,6.13,5.28,6.67l.53.09.53-.1c.07-.01.13-.04.2-.05h0s0,0,0,0c1.61-.35,2.96-1.2,4.15-1.96.59-.38,1.22-.78,1.76-1.02.47.61.92,1.2,1.36,1.78.43.56.85,1.12,1.29,1.7-.92,1.69-1.54,2.61-2.78,3.06h-.78c-3.04-2.04-6.38-2.77-9.62-3.48-1.6-.35-3.12-.68-4.55-1.16l-3.92-1.32-.03,4.14c0,.93.21,1.61.35,2.06.03.08.06.16.07.19l-.02,2.85,2.85.17c.87.05,1.72.19,2.57.37-.19-.01-.38-.03-.57-.04l-.02.74-3.5-.03c0-.16.09-.38.17-.48-.07.08-.14.16-.22.23l-1.6,1.65,1.17,1.98c.3.5.59.99.89,1.49v.32s.2,0,.2,0c.96,1.58,1.93,3.12,2.88,4.62.71,1.12,1.42,2.26,2.14,3.42.62,1.21,1.16,2.57,1.73,4.02,1.23,3.14,2.63,6.71,5.39,9.3l.05.05-.07.34c-1.13,5.61.82,11.28,2.54,16.28.34.97.67,1.93.96,2.86-1.49,2.68-1.92,5.53-2.33,8.15-.48,3.13-.9,5.85-2.87,8.38l-.55.44c-1.84,1.48-3.74,3.01-5.69,4.01-.21.08-.43.14-.63.21-1.3.41-3.47,1.1-4.52,3.73l-.15.38c-1.19-.38-2.64-.48-4.5.32l-.34.14-.29.22c-.46.35-.92.68-1.38,1.02-2.7,1.96-5.76,4.19-7.25,8.11l-.13.33-.04.35c-.26,2.04-.66,4.07-1.09,6.22-.85,4.28-1.73,8.71-1.38,13.22-2.11,4.94-5.61,9.67-9.01,14.26-.47.64-.95,1.28-1.41,1.91-1.88,1.46-3.82,2.86-5.86,4.34-6.57,4.75-13.36,9.66-18.28,16.78l-.49.71c-.24.13-.46.25-.64.36-.15.09-.3.18-.49.28l-1.64.85.03,1.85c.03,2,.87,3.87,2.25,5.14-1.41,1.57-2.57,3.46-3.39,5.59-2.05,5.38-1.49,11.29,1.47,15.43l.3.42.43.3c3.71,2.58,7.86,2.75,11.52,2.9,2.73.11,5.31.22,7.44,1.28,1.76,2.12,3.78,4.14,5.73,6.1,5.78,5.8,11.25,11.29,10.53,19.03-.94,1.88-1.84,3.81-2.71,5.69-2.98,6.41-5.8,12.47-10.4,17.11-.66.16-1.36.33-2.07.5-1.04.25-2.09.49-3.01.74l-1,.26-.62.82c-1.58,2.08-4.24,3.87-6.38,5.16-.96-.12-1.9-.28-2.82-.42-2.4-.39-4.88-.79-7.82-.7l-2.16.07-.62,2.08c-.52,1.74-.72,3.34-.59,4.76l.1,1.08,1.92,1.94c-.45,1.44-1.63,2.7-3.34,4.42-2.82,2.84-6.62,6.67-4.49,13.12-.08.19-.15.38-.23.56-.2.5-.41,1.02-.59,1.37l-.47.94.22,1.03c.84,4,1.58,8.17.57,11.57-.58.78-1.13,1.54-1.67,2.29-3.96,5.45-6.81,9.38-13.47,10.89l-.5.11-.43.27c-1.29.81-2.36,1.71-3.37,2.85l-1,1.12c-2.62-.31-5.09.65-7.14,1.45-.77.3-1.5.59-2.1.75l-1.31.35-.61,1.21c-.23.46-.37.82-.5,1.14-.01.03-.02.06-.03.08l-.38.38-.21.73c-1.77,6.1-1.45,12.45.89,17.86l.79,1.83h.73s.89.88.89.88h.45s2.13,2.13,2.13,2.13l1.71-1.73s.09,0,.12,0h.94s.77-.56.77-.56c1.11-.8,2.68-1.25,4.19-1.7.77-.22,1.56-.46,2.31-.74l1.94-.72v-1.26c.06-.09.11-.19.16-.28l1.7,1.71,1.56-.29c.59-.11,1.21.2,2.48.94.88.51,1.92,1.12,3.16,1.48,1.69,1.72,1.48,3.91.95,7.7-.3,2.11-.6,4.29-.38,6.57l.04.29c.29,1.48.69,3.02,1.07,4.5,1.23,4.79,2.49,9.74.7,13.51l-2.26-.25c-5.28-.58-9.74-2.66-14.04-4.68-7.54-3.53-15.33-7.18-26.88-2.81l-.34.13-.3.21c-1.98,1.37-4.11,2.4-6.36,3.48-1.54.74-3.13,1.51-4.72,2.41l-.43.25-.33.37c-2,2.26-3.04,4.19-3.85,7.12l-.43,1.55,1.05,1.21c3.95,4.54,2.46,10,.64,16.35-.34.54-1.07.91-2.28,1.48l-2.3,1.1.33,2.19c.11.71-.2,1.98-.46,3.11-.25,1.08-.55,2.32-.62,3.59-.56-.11-1.09-.14-1.57-.12l-2.85.12-.05,5.92.45.45v1.39s2.08.68,2.08.68c1.46.47,3.02.81,4.53.97.2.14.38.28.46.37l.91,1.01h.85c-.1.51-.18,1-.25,1.44-.12.72-.21,1.3-.38,1.8l-.3.88-.78-.78-.85-.19c-23.49-5.22-76.99,6.18-95.78,23.74l-.84.78-.1,1.14c-.42,4.65-3.54,8.32-6.84,12.2-.72.85-1.45,1.7-2.15,2.57l-.76,1.18c-5.52,8.93-10.74,17.36-7.29,29.17l.22.74.1.1-.02,2.74,3.5-.56c3.04-.49,5.18,1.07,6.45,2.45,2.25,2.46,3.35,6.23,2.78,9.36l-4.3,5.71-.03.95c-.28,9.32,6.13,13.61,12.66,16.97-2.64.32-5.32.4-8.04.41-3.78-3.97-8.79-5.81-13.8-7.08-.04-.06-.08-.11-.11-.17-.2-.3-.34-.51-.48-.79l-.53-1.08-1.13-.41c-5.16-1.88-8.95-.47-12.29.78-2.85,1.06-5.34,1.99-8.93,1.03-.38-.33-.74-.59-1.07-.84-.39-.29-.72-.53-1.01-.82l-.97-.96-1.36.1c-1.99.13-3.98-.26-5.84-.72l-1.09-.27-.99.51c-1.75.89-3.48,1.67-5.31,2.5-1.82.82-3.7,1.66-5.58,2.62l-.85.41-.44.87c-.04.05-.15.15-.26.24l-2.56.04-.88,1.02c-2.35,2.72-4.99,5.22-7.25,6.85l-1.02.74-.19,1.25c-.28,1.86-1.8,3.74-3.28,5.57-.62.77-1.21,1.5-1.73,2.25l-.24.41c-.46.96-.73,1.97-.98,2.87-.23.86-.52,1.92-.84,2.27l-.43.46c-.13.1-.26.22-.4.36l-5.14,5.23,6.12-.09c.11.08.22.15.32.21-.25.23-.5.45-.76.68-3.14,2.78-6.38,5.65-8.78,9.44l-.07.11c-1.87,3.25-3.04,6.87-4.16,10.38-1.6,4.98-3.11,9.69-6.44,12.97l-2.16,2.13.85.85c-2.68,3.26-6.19,5.89-9.88,8.66-4.38,3.29-8.91,6.69-12.33,11.39-.12.14-.24.27-.36.41l-.29-.14v.47c-7.06,8.08-11.53,17.89-15.86,27.39-6.47,14.2-12.58,27.6-26.58,34.94l-1.59.83-.03,3.86c-5.01,6.39-4.46,15.07-3.43,21.45-.72,1.91-1.43,4.03-1.08,6.45l-1.16,1.15.61,1.78c.77,2.24.92,3.91,1.16,6.45l.03.33.1.32c.13.41.27.81.41,1.21.49,1.41.88,2.53.8,3.61-.45,1.88-.62,3.67-.52,5.6l.02.48.17.45c.1.27.23.53.37.78-.41.28-.83.64-1.24,1.12l-.46.53-.17.68c-.28,1.08-.41,2.08-.54,3.05-.11.83-.21,1.61-.4,2.34l-.38,1.48-.31.61c-.42.83-.85,1.56-1.3,2.33-.47.81-.96,1.65-1.46,2.62l-.86,2.03.08.08c-.33-.08-.68-.11-1.12-.12h-1.25s-.87.91-.87.91c-.62.64-1.17,1.27-1.7,1.89-1.08,1.25-2.02,2.34-3.21,3.08l-1.39.8v1.65c-.03.09-.06.17-.09.25-.1.29-.23.67-.31,1.14-.4.29-.79.67-1.16,1.19-2.2,1.87-4.6,3.51-7.13,5.24-4.42,3.03-8.99,6.15-12.59,10.65-2.49,1.2-4.92,2.67-7.27,4.09-6.42,3.88-12.48,7.55-19.01,5.53l-1.17-.36-1.09.56c-1.64.84-2.02,2.56-2.09,3.91-.67.51-1.09.7-1.63.72l-1.19.03-.84.83c-1.46,1.44-2.92,2.57-4.44,3.71-3.03.23-5.35.77-7.09,1.66l-1.63.83v.58s-.02.02-.03.03l-2.94,2.9,2.88,1.49c-.36.06-.71.11-1.06.17-1.97.32-3.84.63-5.58.46l-.18-.02,1.01-.99-4.07-4-1.39.13c-1.01.1-1.88.35-2.65.58-.72.21-1.34.39-1.8.35l-8.35-.74,4.22,4.14c-2.18.38-4.11.6-5.82.68l-2.85.13v.92s-.69-.09-.69-.09c-3.6-.5-7.37-.12-11.01.25-3.36.34-6.53.66-9.5.34l-3.11-.37-.2,3.12c-.05.26-.53.95-.81,1.35-.19.28-.39.56-.56.83l-1.31,2.05,1.61,1.58h0c.04.08.08.17.14.27,0,.44-.03.77-.11,1.07-4.56,5.38-9.13,6.83-12.81,8.01-6.33,2.02-10.62,4.33-8,15.76.54,2.15-.77,4.49-2.3,7.19-.89,1.58-1.8,3.2-2.42,4.94l-.12.09c-4.26,3.13-9.99,7.34-10.72,13.79l-1.76,1.72-.12,1.05c-.5,4.35-2.87,8.15-7.66,12.33l-.53.46-.27.65c-1.94,4.67-1.48,9.44-1.04,14.06.23,2.39.44,4.65.32,6.81-1.03,9.29-3.88,12.07-10.79,17.97l-1.63,1.39.79,1.99c.46,1.15.59,2.53.73,4,.09.94.18,1.9.36,2.9-1.38,7.53-3.59,15.12-5.72,22.47-.62,2.14-1.24,4.27-1.84,6.41l-.19.67.52,2.79c2.15,11.5,4.37,23.4,1.09,34.64l-.51,1.73,2.18,2.13c0,.08.01.17.02.25.03.35.07.76.08,1.08-.11.23-.2.44-.27.63-.34.29-.61.65-.82,1.06-.84,1.7,0,3.33.36,4.02l.29.59.25.24c-.64,1.37-1.96,2.96-3.81,4.57l-1.54,1.33.61,1.75c-.06.24-.25.7-.39,1.01-.16.38-.36.84-.52,1.35v-2.21s-1.37,0-1.37,0v-3.54s-2.99-.01-2.99-.01c-.77,0-1.45.22-2.08.67l-.15.07c-.78.38-1.42.87-2.11,1.39-.43.33-.88.67-1.38.99l-1.37.89.02,4.85c-6.45,7-14.38,18.04-15.96,26.91-.44.05-.85.19-1.24.4h-.79s-4.13,6.05-4.13,6.05v.11h-.05s-.88,1.48-.88,1.48c-3.02,5.11-7.2,8.74-12.42,10.79h-1.65s-.87,1.51-.87,1.51c-1.42,2.48-3.4,4.57-5.49,6.77-2.18,2.3-4.44,4.67-6.2,7.67l-.27.46c-.05.02-.1.04-.15.07l-.27.12-.24.17c-11.23,7.85-15.21,20.18-19.06,32.1-.44,1.36-.88,2.72-1.32,4.06l-.12.48c-.3,1.86.17,3.42.54,4.67.18.62.35,1.17.38,1.62Z"/>
      <path class="cls-1" d="M78.16,1120.18l5.57.02.95-.93c1.01-.56,1.43-1.37,1.59-1.87.32-.94.2-1.89-.38-2.87l-.05-.5-.34-.33v-2.17s-5.12-.02-5.12-.02l-.88.86c-.58.56-.87,1.14-1.03,1.45l-2.08,2.03,1.75,1.71v2.61Z"/>
      <path class="cls-1" d="M275,814.82c.16.31.45.89,1.03,1.46l2.13,2.1,2.1-2.12c1.4-1.4,2.66-3.28,3.39-5.02l.14-.4c.56-2.16.58-4.26.59-6.11l.02-3.06-3.06.03c-1.67.02-2.78,1.12-3.45,1.78l-2.15,2.13.69.68c-1.13,1.91-2.12,3.99-2.2,6.42l-.04,1.31.8.79h0Z"/>
      <path class="cls-1" d="M282.25,836.09l-.03-2.6-1.42.02-.86.85c-.27.27-.79.85-1.1,1.68-.18.26-.29.5-.38.67l-.77.7v1.24c-.03.09-.06.17-.09.25-.16.45-.39,1.14-.4,2.08l-.02,3.05,1.8-.02s0,0,.01.01l2.11,2.08,6.39-6.34-.98-1.94c-.07-.14-.14-.3-.21-.46-.5-1.09-1.25-2.74-2.95-3.57l-1.11,2.29Z"/>
      <path class="cls-1" d="M209.74,896.98l3.91,3.85,2.1-2.08c.99-.98,2.49-2.45,3.57-4.05l1.41-2.07-3.67-3.61-1.37.12c-.62.05-1.14.19-1.53.29l-4.35-3.41-.05,7.11-.46.45v1.24c-.01.62.14,1.2.44,1.73v.43Z"/>
      <path class="cls-1" d="M908.91,1962.02c-.4-.36-.82-.73-1.23-1.16l-.31-.32-.39-.21c-3.13-1.73-6.11-.31-8.07.63l-.32.15c-3.77,1.38-7.32,2.05-10.85,2.06h-2.43s-.5,2.38-.5,2.38c-.27,1.3.16,2.33.39,2.88.01.03.02.06.04.09l.17,1.38c-1.16-.15-2.3-.43-3.6-.76-.17-.04-.35-.09-.53-.13-1.23-2.16-2.63-4.28-4.53-5.87-.04-.89.14-1.9.33-3.02.21-1.23.44-2.6.41-4.04.5-.67,1-1.11,1.33-1.26l-.9-4.01.98-.48c-.19-.38-.42-.76-.68-1.12.07.02.11.04.12.05l-.1-.05s-.02-.01-.03-.02c-.38-.52-.83-1.01-1.33-1.43-.04-.07-.07-.14-.11-.21l-1.2-1.99-2.21.6c-.69.19-1.28.61-1.69,1.17-.08.08-.16.16-.23.25-.13.15-.23.31-.33.47l-2.13,2.17,1.78.9c.06.4.14.82.22,1.27-.02.65-.1,1.43-.18,2.25-.08.76-.16,1.58-.21,2.44-.07.05-.13.1-.2.16-.5.38-1.06.81-1.65,1.42l-.86.87v1.22c0,.89.13,1.8.25,2.69.1.68.19,1.38.19,1.85v1.32s.97.89.97.89c.8.74,1.68,1.34,2.58,1.86v.1l.59.8c.65.87,1.41,1.34,1.91,1.64.09.05.19.12.26.17.34.36.62.71.92,1.09.74.92,1.58,1.97,3.09,2.88l.95.57,1.09-.18c.51-.08,1.36.05,2.18.18,2.07.32,4.91.76,7.31-1.35l5.71-5.03c.92,0,1.77.13,2.58.48.33.18.51.33.51.33h0s.88.87.88.87h3.1l.82-1.68c.22-.45.36-.82.48-1.14,0-.03.02-.05.03-.08l.69-.7v-.92c.72.65,1.61,1.39,2.9,1.96l9.23,4.07-5.5-8.45c-.79-1.22-1.75-2.08-2.68-2.92Z"/>
      <path class="cls-1" d="M872.71,1928.1c-.53.95-.56,2.11-.08,3.08l.35.72.66.45c2.63,1.79,6.49,1.08,8.96-.34l3.37-1.93-3.7-3.78-.73-.22c-1.14-.34-2-.48-2.79-.48-.88,0-1.67.17-2.64.4-.88.13-2.57.57-3.41,2.09Z"/>
      <path class="cls-1" d="M868.54,1945.05h.11s.31-2.56.31-2.56c.07-.57.17-.84.35-1.32.14-.38.32-.86.48-1.49l1.21-4.85-5.25,1.32c-.28.07-.6.16-.88.21-.21-.17-.41-.32-.61-.47-.39-.3-.72-.55-1.02-.85l-.87-.9h-1.26c-.1,0-.39-.08-.61-.14-.12-.03-.24-.06-.38-.09-.98-1.24-2.08-2.24-3.17-3.17.06-.4.19-.86.34-1.43.12-.44.25-.91.36-1.43h5.41l-3.58-4.8c-.58-.78-1.25-1.23-1.75-1.54-.54-1.24-1.08-1.93-2.18-2.96l-5.41-5.01.38,7.37c.07,1.43-.25,2.92-.6,4.5-.42,1.9-.89,4.05-.73,6.44l.06.85.5.69c1.96,2.73,4.48,4.34,6.71,5.76l.31.48h.45c1.12.73,2.18,1.45,3.1,2.32.49.49,1.03,1.04,3.32,2.91l4.9,4v-3.86Z"/>
      <path class="cls-1" d="M878.14,1905.15c.01.28.02.56.03.85.07,2.07.16,4.62,1.73,6.84v1.87h1.36c.08.17.18.37.28.58l.14.28v6.81s.3.63.3.63c.61,1.23,1.61,2.14,2.82,2.54.18.06.36.11.54.14.04.1.09.22.14.34.24.62.55,1.39,1.08,2.17v1.94s.82.87.82.87c1.43,1.51,3.71,3.54,6.97,3.65l3.36.12-.27-3.35c-.06-.72-.23-1.43-.39-2.11-.16-.66-.41-1.72-.33-2.21.38-.6.69-1.11.99-1.63.31-.53.62-1.06,1.04-1.7l.49-.75v-.63s4.76-.01,4.76-.01l-3.01-4.62c-.46-.71-1.05-1.44-1.74-2.13v-4.5s-2.53,2.59-2.53,2.59c-.34-.18-.68-.33-1.03-.46v-1.85s-1.78,0-1.78,0v-4.49l-2.3,1.11c-.1-.14-.18-.27-.23-.37l-.67-1.36-.77-.14c-.02-.12-.04-.24-.06-.34-.13-.78-.31-1.83-.87-2.81v-3.44s-2.04-.69-2.04-.69c-1.74-.59-3.37-.61-4.84-.61h-3.36s.22,3.05.22,3.05c-.04.12-.13.32-.19.47-.34.77-.84,1.93-.69,3.37Z"/>
      <path class="cls-1" d="M842.79,1896.89c.67.84,1.49,1.45,2.17,1.95.39.29.79.59.97.8l.9,1h.84c.4.2,1.03.45,1.83.45h3s0-2.53,0-2.53c.19-.4.45-1.04.45-1.84v-2.99s-3.81,0-3.81,0c-.29-.22-.57-.45-.86-.69-.34-.28-.69-.56-1.07-.85l-.32-1.19h-1.81s-.03-.01-.05-.02c-.55-.2-1.33-.47-2.3-.47-.28,0-.58.02-.89.08l-5.63.99,4.01,4.07c.76.77,1.69,1.1,2.57,1.25Z"/>
      <path class="cls-1" d="M801.91,1844.23l3.04.03-.31-3.3c0-.09.08-.37.13-.57.27-.96.82-2.97-.72-5.04l-.86-1.15-1.44-.05c-.71-.03-1.4-.04-2.08-.04-3.33,0-6.23.32-9,.98l-.84.2-.6.61c-.7.72-1.18,1.52-1.56,2.16-.24.4-.48.81-.67,1l-.87.88v1.18c-.01.05-.04.1-.05.14-.06.14-.13.32-.19.52l-5.71-.03,5.05,5.14c.14.15.28.28.42.4-.18.09-.35.17-.51.26l-3.67,1.85,2.88,2.93c.46.46.9.73,1.19.9.23.14.35.21.6.47l.88.89h1.25s.01,0,.02,0c1.7,0,2.8-1.12,3.47-1.8l2.07-2.1-1.66-1.69v-2.66s-.81,0-.81,0c.29-.32.55-.65.8-1.02.78-.28,1.26-.15,2.29.12.99.26,2.38.62,4.15.58l1.22-.03,1.58-1.6c.11-.04.22-.07.32-.11.07-.02.13-.05.19-.07Z"/>
      <path class="cls-1" d="M817.24,1880.05c.11-1.71-.1-3.14-.67-4.53l-.83-2.01-2.17.17c-.38.03-1.12-.38-1.49-.58l-.04-.02.59-1.88c.05-.15.73-.57,1.06-.78,1.25-.77,3.34-2.07,3.53-4.91l.21-3.19h-3.2s0-.01-.01-.01c-.79,0-1.42.25-1.82.45h-.42s-.76.51-.76.51c-.55.37-1.12.72-1.69,1.07-2.71,1.66-5.79,3.55-7.43,7.51l-.53,1.25.6,1.22c.06.14.15.57.2.86.04.22.09.45.15.69-.12.38-.2.79-.2,1.22v2.98s2.99.01,2.99.01c.94.01,1.63-.23,2.08-.38.08-.03.15-.06.15-.07h.59c.4.31.9.64,1.46.9.17.28.4.61.73.95l.88.89h.99c.07.03.13.05.2.07.51.17,1.13.39,1.85.39h2.82s.19-2.8.19-2.8Z"/>
      <path class="cls-1" d="M790.11,1865.86c-.33,0-.66,0-.98.02-2.06.04-2.97,0-3.71-.66l-2.13-1.89-7.86,8.01,5.92.02c.38.29.72.47.95.59l.65.66,1.08.11c.21.02.46.09.75.17.48.13,1.08.28,1.8.33.71.34,1.38.42,1.85.44l2.54,2.59,1.87-3.8c.22-.46.37-.83.48-1.14,0-.02.02-.04.02-.07l.69-.7v-1.23c0-.14-.05-3.43-3.92-3.45Z"/>
      <path class="cls-1" d="M820.66,1902.35c-.35-.07-.68-.1-1-.1-3,0-4.38,2.85-4.94,3.99l2.03.99h0s-2.04-.99-2.04-.99l-.19.5c-.35,1.24.02,2.68.96,3.76.93,1.07,2.31,1.58,3.69,1.39l.97-.15.29-.28,2.16-.02.04-2.98c0-.18.1-.68.16-1.01.13-.67.28-1.42.28-2.17v-2.47s-2.43-.47-2.43-.47Z"/>
      <path class="cls-1" d="M845.92,1916.89c-.03-.08-.06-.15-.09-.21v-.84l-.96-.89c-.52-.48-.93-1.17-1.42-1.97-.4-.66-.84-1.39-1.42-2.1l.22-.23v-.42c.29-.53.44-1.1.44-1.72v-2.77s-2.77-.21-2.77-.21c-.8-.06-1.52.02-2.14.13v-9.67s-.33-.64-.33-.64c-.38-.74-.8-1.46-1.21-2.16-.68-1.15-1.33-2.26-1.71-3.3l5.56-5.69h-6.72s-.03-.03-.04-.03l-.98-.99-1.39.11c-.57.05-1.03-.48-2.17-2.56-.28-.52-.57-1.02-.86-1.5l-5.55-8.9v10.95c0,.33,0,.88-.29,1.79l-.5,1.54,1.01,1.27c1.06,1.32,2.43,2.43,4.16,3.36.99,4.26,2.92,8.05,5.75,11.28l4.61,5.29c-.06.01-.12.03-.18.04-.56.12-1,.21-1.31.17l-3.41-.46v5.78s.59.79.59.79c1.2,1.64,2.65,3.59,4.91,4.66.39.99.88,1.9,1.33,2.73.38.69.73,1.35.98,1.96l.66,1.61,1.54.21.08.03c.52.22,1.59.69,2.92.41l2.37-.51v-1.62c.29-.52.44-1.1.44-1.71v-1.84l-1.63-.84c-.21-.11-.36-.2-.5-.31Z"/>
      <path class="cls-1" d="M826.59,393.82h-1.89c-.82,0-1.52.18-2.08.33-.22.05-.51.13-.62.14h-2.98s0,5.6,0,5.6l1.52,1.53.23.16c1.84,1.27,3.22,1.01,4.44.54.11-.04.23-.09.39-.14l.73-.22,1.66-1.69.15-.96c.25-1.65-.26-2.68-.61-3.37l-.92-1.91Z"/>
      <path class="cls-1" d="M832.49,365.15l2.53-.59-.6-2.87c-.2-.95-.57-1.74-.87-2.38-.07-.16-.15-.31-.21-.47l-.78-1.81h-3.67s-.85.87-.85.87c-.29.16-.58.37-.87.65l1.63,1.67-2.56.26c0,.6.12,1.09.3,1.48.19.58.43,1.08.63,1.51.07.16.15.32.21.47l.58,1.34,1.41.37c1.46.38,2.56-.17,3.11-.51Z"/>
      <path class="cls-1" d="M805.43,395.19c2.14-.68,3.38-.96,5.09-.8l3.27.31v-5.67s-.61-.81-.61-.81c-1.19-1.55-2.92-1.86-3.95-2.05-.22-.04-.54-.1-.58-.11l-.46-.25-.52-.08c-.26-.04-.5-.06-.72-.06-1.15,0-1.94.46-2.48.94h-3.84v3c0,.79.25,1.43.45,1.83v.76s.45.45.45.45v3.78l3.91-1.25Z"/>
      <path class="cls-1" d="M672.35,12.13c.07.23.14.47.21.72.25.89.54,1.91,1.16,2.93l.89,1.47,5.02-.09.09-2.84c0-.06.19-.4.72-.7l1.51-.85v-.94c.15-.25.26-.51.33-.78.25-.4.63-1.14.62-2.15,1.44.07,2.93-.1,4.14-1.06.92-.73,1.48-1.79,1.59-3.01l.13-1.38h-.01s.52-1.25.52-1.25l-2.91-.88.6-.63-3.17.02c-1.03-.17-2.04-.27-3.02-.36l-3.8-.37-.02,2.31-.76.79.2.45-.25.26-1.08-1.11-1.73,1.79-2.12.04-.02,1.95-.76.79.75,1.75c.13,1.34.64,2.37,1.19,3.12Z"/>
      <path class="cls-1" d="M1536.46,824.84c.12.03.27.07.38.1,3.61,1.04,5.24-.64,5.96-2.24l.27-.6-.04-6.74-4.27,2.06c-.14.06-.56.13-.84.19-.54.1-1.19.22-1.85.46-.72.16-1.4.53-1.94,1.07-.74.74-1.16,1.75-1.15,2.76l.04,3.85,3.43-.9Z"/>
      <path class="cls-1" d="M903.89,664.93h1.14c1.34.99,3.3,1.01,4.11.84l1.71-.36.36-1.12s.04-.03.06-.05c.45-.35,1.07-.83,1.54-1.54l.51-.76v-4.36s-3,0-3,0h-.01c-.97,0-1.76.16-2.39.28-.42.08-.74.15-1.06.16-.86-.06-1.73.23-2.4.83-1,.9-1.46,2.43-1.13,3.79l.56,2.29Z"/>
      <path class="cls-1" d="M1030.15,1856.51c-.4-.4-1.47-1.29-3.03-1.31l-2.94.04v1.18c-.17.1-.33.2-.49.31-.37.24-.7.45-1.01.6l-5.5-.91c.52-1.57,1.53-1.58,1.91-1.59h-.9s-.75.52-.75.52c-.52.36-1.09.65-1.7.96-.53.27-1.11.57-1.72.94-.69.13-1.31.33-1.83.5-.56.18-1.08.35-1.39.33l-1.9-.11-.91,1.68c-.66,1.23-1.06,2.52-1.42,3.67-.02.08-.05.16-.07.24l-4.47.04-.66.48c-.12-.01-.37-.06-.83-.24l-.94-.37-.97.28c-2.11.6-3.6,1.85-4.91,2.96-.9.76-1.68,1.42-2.48,1.71l-.84.31-.53.72c-.76,1.04-1.91,1.81-3.23,2.71-.94.64-1.99,1.35-2.96,2.24-3.17.53-6.55.44-10.1.35-.88-.02-1.76-.05-2.66-.06.5-.19.99-.43,1.48-.72l3.3-1.96-2.69-2.73c-.21-.21-.42-.43-.64-.66-1.21-1.26-2.56-2.65-4.26-3.59-.61-.68-1.49-1.12-2.49-1.15h-.05s-.05,0-.05,0c-1.21.01-2.33-.09-3.52-.19-.89-.08-1.8-.15-2.77-.19l-1.81-1.84-3.86.02-.4.41-.96-.51c-2.98-1.54-6.23-1.37-9.11-1.22-1.3.07-2.53.14-3.63.04l-.58-.05-.19.06c-.35-.38-.64-.73-.77-1.01l-.33-.7-.63-.45c-4.95-3.57-10.77-5.25-16.39-6.87-1.88-.54-3.65-1.05-5.38-1.63l-.33-.11-.35-.03c-2.17-.2-4.16.27-5.93.68-1.53.35-2.88.67-4.05.51-2.35-2.41-2.8-5.7-3.37-9.79l-.15-1.11-3.03-3.08-.75-.22c-.8-.23-1.78-1.2-2.73-2.13-.65-.64-1.32-1.3-2.08-1.89l-.39-.3-.46-.16c-3.29-1.16-6.65-1.29-9.89-1.42-2.08-.08-4.08-.16-5.98-.5v-1.41h-1.07l-.87-.5c-.05-.03-.1-.06-.15-.09,4.55-2.86,9.12-5.96,11.67-11.51l1.94-4.23-4.66-.02c-5.6-.02-11.29.69-16.76,1.39-4.95.63-10.07,1.27-15.05,1.34h-.23c-2.51.24-5.09-.28-7.82-.83-3.01-.61-6.11-1.23-9.36-.91l.23-1.28-4.6,1.29c-1.44.4-2.85.86-4.22,1.31-4.13,1.34-8.04,2.62-12.08,2.18l-1.44-.15-1.38,1.4c-.83.39-1.44,1-1.86,1.43l-.38.38-.22.49c-.82,1.82-.82,3.37,0,5.19l.22.49,1.17,1.19.65.33c.57.3,1.5.77,2.85.69,2.09.37,3.9,1.9,5.95,4.06l.22.21c4.14,3.56,9.15,4.25,13.17,4.81l.84.12.78-.34c.41-.18.98-.19,1.64-.11l1.67,1.69-1.56,1.59,1.96,1.99v.02c.17.33.45.89,1.01,1.46l.88.9h.87s.03.02.03.02h0s.94.95.94.95l1.34-.06c1.96-.09,3.75.06,5.74.32.62.46,1.26.81,1.86,1.14.46.25.9.49,1.31.77l.79.54.96-.02c.44-.02,1.07.17,1.74.36.93.26,2.04.57,3.28.59.25.1.49.18.73.24.14.21.32.43.54.65l.35.31c1.07.79,2.15,1.05,3.12,1.03l.45.33c.93.68,1.81,1.37,2.7,2.06.46.36.93.72,1.4,1.08l-1.3,2.34,4.43.53c1.47.18,2.35.96,3.92,2.45.64.6,1.36,1.29,2.19,1.93l.81.63h.76c.06.02.13.04.2.07.32.11.68.23,1.09.31v1.32s2.38.5,2.38.5c.76.16,1.55.29,2.35.38l.48.48v.02c.05.08.09.17.15.27v2.55h1.78s0,1.81,0,1.81h1.34s0,1.24,0,1.24l1.36-.48v.21s.84.85.84.85c.57.58,1.12.86,1.45,1.03l.77.78h2.09s0,0,0,0c.28.43.61.93,1.04,1.36l.88.9h4.38s.26-.3.26-.3c.57.16,1.29.34,2.12.28.42-.02.76-.1,1.04-.18.02,0,.05.01.08.02l.03-.06s0,0,.01,0c0,0,0,0-.01,0l1.17-1.87c.8.04,1.56.07,2.28.1,2.85.11,5.05.19,6.96.83v.38c0,.62.15,1.19.44,1.72v.79s6.1,4.12,6.1,4.12h1.67c.21.1.44.23.69.39v3.84s3.89-1.21,3.89-1.21c1.47-.45,1.65-.37,2.62.38l.81.63h1.02c1.19.02,2.25-.15,3.19-.3.82-.13,1.54-.23,2.23-.23.32.16.64.31.96.47,1.07.51,1.91.91,2.38,1.53l.65.87,1.06.25c3.5.83,7.4.08,10.85-.57.07-.01.14-.03.21-.04v2.43s3.77-1,3.77-1c4.07-1.07,7.17-1.11,10.39-.11l.44.14h.1s-.01,2.61-.01,2.61l3.36-.39c2.99-.34,6.36-1.47,9.34-2.46.92-.31,1.81-.6,2.65-.86,1.25-.23,2.71-.41,4.25-.6,2.65-.32,5.4-.66,7.88-1.34l.35-.1.32-.18c1.73-.98,4.2-1.92,6.81-2.91,6.68-2.54,14.25-5.43,16.8-11.42.85-1.98,1.06-4.12.64-6.39l1.58-.02.71-.44c1.53-.95,3.39-1.69,5.19-2.4.53-.21,1.05-.42,1.55-.63l1.84-.76.02-2.91v-1.26s-.9-.88-.9-.88Z"/>
      <path class="cls-1" d="M984.18,1860.3c1.63.91,3.19,1.1,4.57,1.27.67.08,1.31.16,1.88.32l1.79.5,1.25-1.38c.06-.07.14-.15.23-.24.68-.7,1.9-1.95,2.27-3.63l2.28,2.69.06-9.39-.43-.72c-.77-1.28-1.68-2.39-2.78-3.39l-.59-.54-.78-.17c-1.55-.34-3.24-.65-5.34-.48l-.8.07-.66.45c-.6.42-1.28.7-2.06,1.02-.38.16-.77.32-1.18.51l-3.84-6.96-.05,11.55v.18s0,0,0,0c.03.8.28,1.42.64,1.88.08.22.16.45.25.69.34.97.74,2.14,1.6,3.24.05.13.11.25.15.36v1.3s1.54.86,1.54.86Z"/>
      <path class="cls-1" d="M698.25,1648.48s.28.37.7,1.63l.39,1.16,1.09.56c.83.42,1.84.8,2.93,1.19.08.12.15.22.21.33.2.3.35.53.5.82l.45.9,1.1.55c.64.33,1.71.89,3.37.64l2.58-.38-.03-5.5-.69-.83c-2.12-2.53-4.8-4.58-8.2-6.26l-4.35-2.16v2.26s-5.17-.08-5.17-.08l5.11,5.17Z"/>
      <path class="cls-1" d="M760.68,1816.79h.55s.89-.89.89-.89c.5-.5.76-.99.93-1.33l1.12-.93,5.28.05-.35-.36c1.13.2,2.27.38,3.43.38.92.31,1.83.63,2.71.95.77.27,1.55.55,2.33.81-.14.24-.25.51-.33.79l-1.09,3.8,3.13.02c.19.11.38.2.58.27,2.17,1.21,4.84,1.17,6.83,1.14l3.15-.05v-2.95h-1.64s.21-1.11.21-1.11c1.16-.06,2.35-.21,3.59-.49.43-.1.89-.18,1.35-.26,2.39-.41,6.4-1.1,7.56-5.49l.44-1.66-1.09-1.1v-.02c-.18-.33-.45-.89-1.01-1.46l-.72-.73-1.02-.14c-4.1-.55-7.73-1.04-11.06-2.85.43-1.43.68-2.98.48-4.63l1.53-1.55c.11.05.22.09.33.14l2.58,1.08,1.23-.62c.19-.09.25-.11.25-.11.08-.02.39-.01.62-.01h3.03s-.02-6.01-.02-6.01l-1.38-.88c-2.19-1.4-4.63-2.57-7.54-3.61,2.58.34,5.15.59,7.67.82,1.82.17,3.56.33,5.24.53.38.19.72.31.98.4,0,0,0,0,0,0l.79.8,1.5-.21c1.74-.25,3.62.26,5.6.79,2.85.77,6.09,1.64,9.66.5l1.31-.42.54-1.26c.05-.12.24-.44.38-.68.82-1.37,2.52-4.24.74-7.09l-.28-.38c-1.63-1.86-4.36-2.96-6.49-3.56-1.93-1.1-3.63-2.49-5.2-4.22l-.89-.99h-1.33s0,0,0,0c-.62,0-1.19.15-1.71.45h-.43s-.89.9-.89.9c-.6.6-.92,1.24-1.1,1.82-3.5,2.29-8.07,1.13-12.88-.09-1.16-.29-2.3-.58-3.41-.82l-.3-.06h-.31c-2.41-.02-5.17.03-7.63.84-1.14-.05-2.33-.01-3.48.02-2.55.08-5.19.15-7.19-.63-.44-.32-1.01-.89-1.52-1.39-.35-.35-.72-.69-1.08-1.02l.39-1.21-2.07-.85c-.03-.2-.05-.48-.02-.75l.15-1.39-.58-.61v-2.21s-2.49-.02-2.49-.02c-.22-.11-.5-.23-.85-.33-.35-.22-.86-.64-1.07-.87l-.59-1.21-1.46-.29c-.34-.07-.66-.1-.97-.1-3,0-4.41,2.96-5.04,4.29-.15.32-.39.82-.5.96l-.25.37c-.33.58-.72,1.17-1.13,1.78-1.18,1.78-2.58,3.89-2.87,6.56-.32.12-.63.24-.94.36-2.59,1-3.92,1.36-4.46.73l-.89-1.05h-1s-.05-.03-.05-.03l-1.17-1.19-1.62.36c-.6.14-1.34.22-2.12.31-2.43.28-5.41.62-7.56,2.84-2.73,1.24-6.01,1.53-9.09.79l-.52-.13-.53.06c-2.58.3-5.08.04-7.74-.23-.96-.1-1.94-.2-2.95-.28-.15-.1-.31-.2-.46-.29-.31-.19-.81-.5-.97-.68l-.7-1.83h-1.26s-.02-.03-.03-.04l-.87-.88-4.3-.04-.88,1.47c-.33.55-.52,1-.66,1.33-.05.11-.08.19-.11.25-.09.04-.17.07-.24.11h-.97s-.91,1.14-.91,1.14c-.17.21-.35.43-.54.66-1.15,1.38-2.72,3.27-3.16,5.61l-.25,1.33.83,1.07c4.14,5.34,10.42,8.96,17.92,10.37-.33.57-.56,1.27-.56,2.04v1.22s.86.87.86.87c.43.44.92.77,1.35,1.06.17.12.35.23.45.31l.87.89h1.24c1.47.02,3-.08,4.49-.19,1.06-.07,2.07-.14,3.02-.17.06.04.11.08.17.12.18.52.39.99.59,1.43.18.4.48,1.06.48,1.25l-.33,1.52,1.11,1.12c.12.14.22.32.34.49.29.43.61.93,1.04,1.36l.87.89,3.58.03.81-.59c1.23-.9,3.46.83,4.57,1.99l.88.91,4.49.03c.19.11.38.22.58.33.38.21.76.43,1.11.63.28.36.65.68,1.11.98l.33.34.53.23c2.73,1.19,5.49.49,7.7-.08.85-.22,1.66-.43,2.32-.49.38.07.82.2,1.29.33,1.78.51,4.23,1.21,6.91-.18l.21-.11Z"/>
      <path class="cls-1" d="M1121.73,1384.8c2.37.79,5.2-1.05,6.69-2.46.09-.04.17-.07.24-.11h.75s3.11-3.12,3.11-3.12v-2.94s-2.21-2.22-2.21-2.22h-.43c-.52-.29-1.09-.44-1.71-.44h-1.26s-.58.59-.58.59c-.04,0-.07.02-.11.03-.44.12-1.03.3-1.68.63l-.43.22-.34.34c-.3.3-.54.62-.73.87,0,0,0,0-.01.01-1.53.86-2.55,1.89-3.4,3.42l-.32.57-.05.65c-.14,1.85.82,3.41,2.46,3.95Z"/>
      <path class="cls-1" d="M1140.97,1387.29c.17.11.34.22.44.29l.89.89h1.25c.93-.02,1.78-.16,2.53-.29.27-.05.53-.09.78-.13v.67c-.18.6-.48,1.89.3,3.46l.3.6.88.7c1.6,1.29,4.92,3.97,8.54,1.67l.7-.44.37-.74c.23-.45.37-.82.49-1.13.01-.03.02-.05.03-.08l.22-.22.72.71c.04.15.07.32.1.47.2.95.5,2.3,1.27,3.53l-.73.73,2.13,2.12c.57.57,1.13.85,1.46,1.01l.78.77h1.25c.82-.02,1.52-.2,2.08-.34.22-.06.53-.14.63-.14l2.96-.02v-2.05s.04-.02.05-.03c.43-.29.93-.62,1.36-1.06l.87-.87.02-3.09-1.08-.91c-.25-.21-.52-.39-.8-.54.26-.04.51-.06.73-.07l2.96-.02.04-8.26-1.79.02h-.01c-.73-.74-1.58-1.02-2.09-1.18l-.61-.6h-1.26c-.65.02-1.17.13-1.59.25,1.27-.79,2.49-1.86,3.38-3.48l.37-.67.02-3.37-2.57-2.56-.42-.21c-1.3-.67-2.6-.82-3.77-.82-.54,0-1.05.03-1.52.06-.62.04-1.2.08-1.7.03l-1.05-.09-.88.59c-.75.5-1.92.88-2.95,1.21-.31.1-.6.19-.88.29l-.96.33-.57.85c-.56.84-.97,1.65-1.33,2.36-.31.62-.6,1.2-.96,1.72l-.39.58-1.91-.76c-.19-.07-.51-.29-.82-.5-1-.67-2.52-1.68-4.62-1.48l-.27.02-2.08-2.08-1.86,3.7c-.24.48-.43.67-.81,1.05l-.87.87-.02,4.75.89.89c.44.44.93.76,1.37,1.05Z"/>
      <path class="cls-1" d="M1145.96,1373.97c.53.3,1.08.43,1.73.44h1.83s.83-1.65.83-1.65c.23-.46.37-.82.49-1.14,0-.03.02-.05.03-.07l.71-.71v-1.24c0-.89-.3-2.13-1.86-3.11l-.81-.8h-2.16c-1.53.02-2.66.87-3.35,2.54-.06.13-.12.3-.22.49l-.98,1.94,3.33,3.32h.42Z"/>
      <path class="cls-1" d="M487.06,166.86c.55-.08,1.2-.18,1.97-.28l.29-.04c.26.65.65,1.26,1.14,1.76l.6.62.84.2c1.76.42,3.26.32,4.48.23,1.69-.12,2.21-.12,3.09.66l2.14,1.9,2-2.04c.34-.25,1.36-1,1.48-2.48.03-.4,0-.91-.23-1.46-.04-.27-.09-.53-.14-.76l2.85-2.92c-.07,3.02,2.2,4.34,3.55,5.11l2.02,1.17,2.1-2.15.53-.17c.42-.13.88-.29,1.35-.45.71-.25,1.65-.57,2.45-.77.1.11.2.2.29.29l.91.92.79-.02c.33.15.79.33,1.37.39l-.03,1.7,2.5.46c.26.05.59.16.97.29,1.14.39,2.69.93,4.68.47l2.29-.53.04-2.89c.21.19.4.36.54.53l5.26,6v-5.05l.84-.02.05-2.88c.02-1.37-.46-2.32-.82-2.97-.01-.91-.2-2.01-.89-3.13l-.19-.27c-.63-.81-1.33-1.43-2.02-1.95.03,0,.05,0,.08,0l3.17.13-.04-3.17s-.09,2.52-2.03,2.56l1.25-5.69c-.42-.21-.58-.36-.94-.73l-.54-.55c.44-.36.88-.76,1.29-1.19l1.98-.05c-.06.23-.12.47-.18.72l-1.1,4.36,4.45-.66c.26-.04.6.03,1.21.25l1.81.65,1.34-1.38c.48-.5.72-.8.98-1.24.49-.19,1.15-.5,1.72-1.09l.83-.85.02-1.19c.01-.79-.23-1.42-.42-1.83v-.78s-.88-.9-.88-.9c-.84-.84-.97-.99-1.17-1.41l-.52-1.08h0s-.32-.66-.32-.66h-.16s-1.01-1.39-1.01-1.39c-4-5.49-8.81-6.01-12.14-5.49l-2.49.39-.02,1h-.49s-.84.81-.84.81c-1.39,1.32-2.18,3.06-2.73,4.63l-.42-.14-1.1.55c-.2.1-.52.14-1.03.2-.48.06-1.07.13-1.71.31l.07-2.62c.05-1.46.1-2.96-.57-4.62-.45-1.36-1.4-1.94-1.94-2.17-1.34-.57-2.52-.1-3.15.22l-.84-.04c-.39-.37-.77-.71-1.13-1.03-.39-.35-.79-.7-1.16-1.07l-4.84-4.66-.25,6.76c0,.2-.11.59-.24,1.04-.08-.02-.15-.04-.23-.07l-1.82-.67-1.1,1.13s-.02,0-.03,0c-.49.18-1.31.48-2.02,1.2l-1.46,1.5,1.01,2.1c-.09-.03-.18-.07-.26-.1-1.74-.66-3.53-1.33-5.41-1.46l-2-.13-.76,1.55c-.14-.05-.26-.1-.38-.14,0,0-.01,0-.02,0l-4.79-4.82-.22,11.69c-1.58.82-3.06,1.89-4.25,3.38-2.19.65-3.75,1.37-5.75,2.34l-1.86.82.17,2.05c-.01.15-.15.5-.24.62l-2.67,3.14h-.29s2.92,4.95,2.92,4.95c2.56,4.36,3.66,5.31,8.6,4.56Z"/>
      <path class="cls-1" d="M551.96,1650.36c.4.54,1.34,1.46,3.07,1.53l.55.02.53-.18c1.55-.53,2.33-2.03,3.02-3.35.08-.15.15-.29.21-.4l.69-.84-.12-1.23c-.03-.27-.01-.37-.01-.37h0s2.81-4.51,2.81-4.51l-5.31-.08-1.35-.02s-.05,0-.08,0c-1.26,0-2.4.44-3.2,1.23-.73.72-1.12,1.67-1.11,2.68v.35s.02.05.02.05c-.03.16-.09.4-.14.57-.3,1.18-.75,2.97.42,4.54Z"/>
      <path class="cls-1" d="M554.06,1740.95l.91-1.35c.31-.46.53-.89.67-1.3.03.01.06.02.08.03.45.16,1.13.4,2.07.41h.48s1.34.78,1.34.78l.35-.74h.91s-.02-1.89-.02-1.89l.15-.32c1.02-2.17.48-4.32.08-5.9-.14-.57-.28-1.12-.33-1.57l-.04-.26c-.57-2.98-2.32-4.01-3.32-4.37-1-.35-2.07-.33-3.12.03l.1-4.1c.01-.09.08-.32.13-.47.22-.7.55-1.77.12-2.95l-.1-.28-.15-.25c-1-1.66-1.46-3.4-1.96-5.5l-.54-2.28-2.34-.03s-.03,0-.05,0c-.69,0-1.3.2-1.8.35-.07.02-.13.04-.2.06l-2.1-.04-.59,2.29c-.56,2.17-.55,4.47.03,7.24l.18.86.51.52.02.03c.17.33.44.88,1,1.45l.84.87,1.22.02c.16.02.51.17.85.34h-.67s-1.79-.04-1.79-.04c-.02,0-.04,0-.06,0-1.38,0-2.61.8-3.15,2.06-.21.5-.31,1.01-.29,1.5l.05,3.74,1.69.03s.03.03.05.05l.85.86-2.59,4.08c.85.86,1.85,1.41,2.72,1.9.33.18.65.36.95.54v1.29s.87.86.87.86c.56.57,1.11.85,1.43,1.02l.79.78,1.22.02c.64.02,1.2-.13,1.73-.42h.79Z"/>
      <path class="cls-1" d="M851.84,1774.45c.35.53.63,1.11.94,1.72.35.72.75,1.53,1.3,2.36l.54.82.92.34c1.17.44,2.35.77,3.48,1.09,2.46.7,4.61,1.31,6.18,2.75.15.28.34.53.57.76,1.04,1.04,2.36,1.05,2.98,1.03,1.2-.03,2.95.37,5.17,1.18l.86.31.88-.22c2.81-.69,6.84.01,10.39.63.63.11,1.25.22,1.85.31l1.53.25.66-.67h2.19v-1.28c.25-.01.52-.02.73-.02,1.35-.03,3.03-.08,4.5-.93l.89-.52.39-.95c.04-.1.22-.29.4-.49.63-.68,1.8-1.96,1.6-4.09l-.1-1.07-.64-.65v-.02c-.17-.33-.45-.89-1.01-1.46l-.88-.9h-1.26c-.43.04-1.15-.1-1.81-.19-.42-.06-.85-.12-1.28-.17-.33-.43-.64-.95-.89-1.49l-.8-1.77h-1.86s-.08-.03-.12-.05c-.05-.02-.11-.04-.17-.07-.5-.5-.93-.96-1.09-1.3l-.61-1.34-1.44-.33c-1.48-.34-2.93-.41-4.33-.48-3.15-.15-4.53-.36-5.45-1.82l-3.05-4.82-2.25,5.24c-.21.49-.35.96-.47,1.36h-3.68s-.9,1.23-.9,1.23c-.15.21-.3.42-.43.62-.81-.32-1.53-.4-2-.44-.09,0-.17-.01-.25-.03l-.12-.07c-2.44-1.4-4.84-1.35-6.96-1.32-.4,0-.81.02-1.22.01h-1.27s-.62.61-.62.61c-.5.17-1.34.46-2.07,1.19l-.87.88v1.23c0,.8.26,1.43.45,1.83v.43l.49.75Z"/>
      <path class="cls-1" d="M933.1,1807.61v-.72s-3,.05-3,.05v.54s-.58-.09-.58-.09c-1.44-.22-2.44.17-3.1.5-1.62.27-2.57,1.23-3.07,1.74l-5.06,5.13,10.41-.04.45-.91,4.76-.02.88-.89c1.06-1.08,1.36-2.04,1.31-2.81v-.18s-.02,0-.02,0c-.11-.85-.61-1.45-.87-1.7l-1.67,1.68h-.13s0-.76,0-.76l.66-1.04-.66-.1v-.38s-.31,0-.31,0Z"/>
      <path class="cls-1" d="M962.53,1798.12l-7.08.04-.4.47c-.07,0-.15,0-.21,0-.43-.01-.87-.02-1.32,0l-2.81.17v2.82c0,.63.15,1.21.46,1.75l.04,2.1,2.95.06c.17,0,.65.1.97.16.66.13,1.43.28,2.16.28h.53s.45.45.45.45l6.49-.04-2.11-4.29q-.13-.27-.13-.93v-3.03Z"/>
      <path class="cls-1" d="M537.93,1678.09c-.14.28-.28.49-.47.79-.24.37-.55.83-.85,1.45l-.33.67.03.75c.01.41,0,.85,0,1.3-.01,1.82-.02,3.89.75,5.68l.77,1.77,1.93.03c.63.01,1.2-.13,1.73-.43l1,.02.86-1.62c.23-.43.49-.83.77-1.25,1.03-1.57,2.32-3.52,1.72-6.97l-.25-1.47-1.33-.68c-.29-.15-.52-.31-.81-.51-.37-.25-.83-.57-1.45-.89l-2.72-1.4-1.35,2.75Z"/>
      <path class="cls-1" d="M547.71,1705.33l1.12-.91-.04-3.57-.85-.86c-.32-.32-.64-1.04-.9-1.61-.13-.29-.26-.57-.39-.82l-.43-.85-.15-.08c.06-1.09-.36-1.91-.64-2.36l-.39-1.61-1.94-.34c-.8-.14-1.54-.09-2.12-.05-.03,0-.07,0-.11,0l-.48-.95-5.35-.09.06,5.13.32.62c.06.12.13.25.19.39l-3.91,1.91,4.88.87.36.36c0,.13,0,.24,0,.33v.05s-.19,3.13-.19,3.13l2.36.04,1.31,1.33,1.04.06c.1.04.29.13.42.2.92.45,3.36,1.63,5.8-.34Z"/>
      <path class="cls-1" d="M570.14,1740.19l-2.28-.04c-.4-.2-1.03-.47-1.83-.48l-3.08-.05.05,4.43c0,.56.02,1.77.91,2.96v3.42l4.43-2.4c2.25-1.22,2.05-4.14,1.99-5.1l-.19-2.75Z"/>
      <path class="cls-1" d="M1561.15,1779.22l3.81,10.12,1.73-9.97c.61-.51,1.42-1.43,1.57-2.94l.15-1.43-1.03-1.01c-.45-.44-.94-.75-1.37-1.03-.15-.1-.31-.19-.38-.24l-.93-.91-1.3.05c-.8.03-1.43.32-1.82.52l-1.89.08-.47,2.3c-.42,2.04.97,3.47,1.64,4.15.1.1.2.2.29.3Z"/>
      <path class="cls-1" d="M1467.68,1844.1l.38.37c.57.56,1.14.84,1.47.99l1.99,1.96,1.73-1.76,2.08-.08.14-5.87-.43-.44v-.46s-.91-.91-.91-.91c-.57-.56-1.15-.84-1.47-.99l-4.8-4.74-.15,6.7c-.02.07-.05.15-.08.23-.19.53-.4,1.13-.42,1.83l-.04,1.41s0-.05,0-.08l-.04,1.3h0s-.01.57-.01.57l.56-.02Z"/>
      <path class="cls-1" d="M1700.18,1998.89l.89-.06-.1,2.21,5.81-.39,2.03-2.07.08-1.1c.17-2.38-.7-4.19-1.4-5.64-.27-.55-.52-1.07-.69-1.58l-1.57-4.59-5.14,5.22-.16,3.61-.22,1.31.58.6-.11,2.47Z"/>
      <path class="cls-1" d="M686.63,1771.58v-.42s-3.57-.03-3.57-.03h0c-1.45.07-2.69,1.02-3.06,2.37l-.6,2.27.39.22.02,2.46,7.34.08-.04-6.95h-.48Z"/>
      <path class="cls-1" d="M672.83,1778.6v-.41s-1.32-1.33-1.32-1.33c-.12-.6.01-1.48.15-2.4.08-.53.16-1.05.21-1.56l.12-1.31-.88-.98c-1.44-1.6-3.55-1.53-4.81-1.48-.01,0-.02,0-.03,0-1.81-.93-4.24-.64-6.28-.08-.54-.01-1.07,0-1.6,0-1.91.02-3.12,0-4.15-.58l-1.39-.8-1.29.64c-.85-.34-1.62-.3-1.99-.27h-.06s-.11,0-.11,0c-4.28-.33-7.63.62-10.25,2.89l-.6.54-.26.75c-.03.09-.11.21-.22.34l-1.03-1.05-4.12-.06-.2.02c-1.48.18-3.71.45-4.34,2.6-.35,1.18.05,2.46,1.01,3.26.97.8,2.92,1.08,4.76,1l.04,4.66,2.54.37c1.15.17,2.31.49,3.55.82,2.12.58,4.35,1.19,6.79,1.15h1.07s.97.25.97.25l.16-.28h.27c2.66.37,5.38.45,8.02.52,2.9.08,5.64.16,8.24.6l2.35.39.23-.54c.17-.06.35-.14.51-.23h.43s.89-.9.89-.9c.65-.66.98-1.36,1.15-1.98l1.96-.47-.02-2.39c0-.61-.16-1.19-.46-1.71Z"/>
      <path class="cls-1" d="M777.51,1857.67s.01-.04.02-.05c.21-.7.52-1.76.34-2.91l-.36-2.31-2.33-.21c-.17-.02-.34-.02-.51-.02-.9,0-1.63.21-2.14.36-.13.04-.29.09-.38.11l-1.43-.22-.63.64-2.21-.02v2.16c-.19-.13-.43-.27-.71-.39l-.04-1.85-3.05.07c-1.12.03-1.68.03-2.21-.21l-.17.39c-.22-.09-.46-.15-.71-.18v-.47s-3.37-.02-3.37-.02l.02,3.38-.2,3.1h.66s0,.68,0,.68l2.76.21c.26.02.62.1.99.18.35.08.75.16,1.17.23v2.34s7.8.05,7.8.05v-3.12s.54-.09.54-.09c.15.08.43.26.64.4.34.22.68.45,1.05.65l6.18,3.4-1.68-6.25Z"/>
      <path class="cls-1" d="M539.95,1628.25l-.05-5.19-4.32-.06-.47.15c-1.42.46-2.9.93-4.88,1.9l-1.7.83.02,1.41c-.19.41-.44,1.04-.43,1.83l.03,3.02,3.02-.06c3.08-.06,5.62-1.02,7.77-2.93l1.02-.91Z"/>
      <path class="cls-1" d="M542.34,1665.92l-1.7.83.05,4.92.45.46.02,2.2,2.47.42c1.66.29,2.75-.25,3.39-.58l.66-.32,2.14-2.15-.04-4.28-.23-.23h.97s-.4-1.72-.4-1.72l3.75-3.76-5.52-.08s-.09-.05-.13-.07l.45-.26h2.39s-.01-1.35-.01-1.35l.79-.46-.57-2.22c-.06-.23-.15-.45-.25-.66l-.05-5.94-2.92,2.93-3.08-3.11.04,4.32h0l.02,2.11c-.23.45-.34.9-.33,1.36l-1.47-1.49.07,6.48c-.14.29-.22.57-.26.84l-.65.65.57.79-.04.04c-.06.05-.25.2-.58.36Z"/>
      <path class="cls-1" d="M609.33,1627.85c.3-.07.55-.13.76-.15l2.77-.23-.02-1.98s0,0,0,0l3-3.02-3.85-1.81c-1.93-.91-3.7-1.29-5.31-1.12l-.35-.35-.23-.16c-1.57-1.09-3.25-1.05-4.37-1.03-.26,0-.52.02-.77,0l-1.35-.07-3.5,3.51-.09,1.09c-.09,1.09.13,2,.31,2.74.07.3.15.63.16.79l.04,1.17,3.86,3.9,3.37-3.38,2.5.36c1.3.19,2.32-.06,3.06-.24Z"/>
      <path class="cls-1" d="M624.83,1622.21v1.22s.87.87.87.87c.57.57,1.12.85,1.45,1.02l.78.77,6.08.07v-2.23c.28-.53.43-1.11.42-1.73v-1.35s-1.02-.89-1.02-.89c-1.13-.99-2.67-1.27-3.91-1.5-.21-.04-.41-.07-.58-.11l-1.57-.33-1.16,1.1c.26-.25.75-.38,1.21-.39l-.03,3-.03,3c-1.3-.09-2.48-1.31-2.51-2.52Z"/>
      <path class="cls-1" d="M625.19,1776.77c.11,0,.17.02.17.02-.08-.02-.3-.13-.47-.21-.66-.32-1.68-.82-2.97-.82-.35,0-.72.04-1.11.12l-1.49.33c-1.11.04-2.08.33-2.91.63l.09.53-.96-.51-2,2.01-2.69-.04-.9.91c-.37.37-.53.54-.98.76l.55,2.42-1.47,1.48h1.81s.09.39.09.39v.1s-2.62,3.99-2.62,3.99c-.24-.35-.41-.84-.42-1.24l.03,3.02,8.24.12-.05-5.54.21-.8c.2,0,.38.01.56.02,1.15.04,2.58.1,4.12-.93l.97-.65.44.15c1.79.6,4.55-.4,4.67-.45l-.49-3.12,3.41-2.04-3.81-.52-.02-.14Z"/>
      <path class="cls-1" d="M617.68,1769.83s0,0,.01,0l.6.61,1.23.02c.97,0,1.79-.22,2.34-.38.05-.01.1-.03.15-.04l2.82.04-.07-7.34-3.69-.08c-.48-.02-.97-.03-1.47-.03-1.76,0-3.65.19-5.54,1.26l-9.67,5.45,12.51.18c.3.14.57.23.78.31Z"/>
    </g>
  </g>
</svg>